<svg version="1.1" xmlns="http://www.w3.org/2000/svg" xmlns:xlink="http://www.w3.org/1999/xlink" x="0px" y="0px" width="150px" height="96px" viewBox="0 0 149.8 95.8" style="enable-background:new 0 0 149.8 95.8;" xml:space="preserve">
<style type="text/css">
	.st0{fill:none;stroke:#00b5e2;stroke-width:2;stroke-linecap:round;stroke-linejoin:round;stroke-miterlimit:10;}
	
		.st1{fill-rule:evenodd;clip-rule:evenodd;fill:none;stroke:#00b5e2;stroke-width:2;stroke-linecap:round;stroke-linejoin:round;stroke-miterlimit:10;}
	.st2{fill:#5A5654;}
</style>
<g id="Layer_1">
<g>
<g>
<path class="st0" d="M78.9,64.4c-1.9,2.3-3.1,5.2-3.1,8.5C75.8,80.1,81.7,86,89,86c3.1,0,6-1.1,8.2-2.9c1.7,5.6,6.8,9.6,12.9,9.6
				c5.1,0,9.6-2.9,11.9-7.1c2.6,3.5,6.7,5.9,11.4,5.9c7.8,0,14.1-6.3,14.1-14.1c0-2.8-0.8-5.3-2.2-7.5c1.4-1.7,2.2-3.9,2.2-6.3
				c0-5.6-4.5-10.1-10.1-10.1c-1.7,0-3.2,0.4-4.6,1.1c-2.1-5.7-6.8-10.1-12.6-11.9"></path>
<path class="st0" d="M89.6,59.7c-0.2,0-0.4,0-0.6,0c-4.1,0-7.7,1.8-10.1,4.7"></path>
<path class="st0" d="M98,50.9c-1.9,2.9-3,6.4-3.1,10.1c-1.6-0.8-3.4-1.3-5.2-1.4"></path>
<path class="st0" d="M106.9,43.4c-3.7,1.5-6.8,4.2-9,7.5"></path>
<path class="st0" d="M120.2,42.8c-1.8-0.6-3.8-0.9-5.8-0.9c-2.7,0-5.2,0.5-7.5,1.5"></path>
<g>
<path class="st0" d="M14.1,71.9c0-28.2,22.8-51,51-51c17.3,0,32.6,8.6,41.8,21.8"></path>
<path class="st0" d="M120.2,42.1C109.6,22.5,88.9,9.2,65.1,9.2c-34.6,0-62.6,28-62.6,62.6"></path>
<path class="st0" d="M37.4,71.9c0-15.3,12.4-27.7,27.7-27.7c10.7,0,19.9,6,24.5,14.8"></path>
<path class="st0" d="M98,50.2c-7-10.7-19.1-17.7-32.9-17.7c-21.7,0-39.4,17.6-39.4,39.4"></path>
<path class="st0" d="M78.9,63.7c-2.8-4.7-7.9-7.9-13.8-7.9C56.2,55.8,49,63,49,71.9"></path>
			</g>
		</g>
	</g>
</g>
<g id="Layer_2">
</g>
<g id="Layer_3">
</g>
</svg>