<?xml version="1.0" encoding="utf-8"?>
<!-- Generator: Adobe Illustrator 26.4.0, SVG Export Plug-In . SVG Version: 6.00 Build 0)  -->
<svg version="1.1" id="Layer_1" xmlns="http://www.w3.org/2000/svg" xmlns:xlink="http://www.w3.org/1999/xlink" x="0px" y="0px"
	 viewBox="0 0 283.46 283.46" style="enable-background:new 0 0 283.46 283.46;" xml:space="preserve">
<style type="text/css">
	.st0{fill:none;stroke:#576baa;stroke-width:4;stroke-linecap:round;stroke-linejoin:round;stroke-miterlimit:10;}
</style>
<path class="st0" d="M159.79,150.91c-9,4.48-15.95,12.35-19.13,21.89 M122.57,169.08v7.31 M135.49,169.08v7.31 M129.18,169.08v7.31
	 M158.99,169.08v7.31 M171.73,169.08v7.31 M165.42,169.08v7.31 M81.56,117.34l6.14,0.33c0,0,0.2-19.69,9.68-16.85
	c5.29,1.59,9.12,2.35,16.3,0c6.2-2.03,11.89,2.1,11.89,16.09l4.99-0.31 M97.91,126.12c0,0,9.16,11.11,16.79,0 M167.71,141.75
	c0,0,8.55,10.57,16.8,0 M181.09,182.41c0,8.29-6.85,15.01-15.3,15.01c-8.44,0-15.29-6.72-15.29-15.01c0-8.28,6.85-15.01,15.29-15.01
	C174.25,167.4,181.09,174.13,181.09,182.41z M155.98,193.72c-4.99,3.27-8.3,8.82-8.38,15.14h-0.01v0.07c0,0.06-0.01,0.11-0.01,0.17
	s0.01,0.11,0.01,0.17v11.53 M185.34,222.19v-13.33h-0.03c-0.08-6.12-3.19-11.51-7.92-14.83 M144.23,182.41
	c0,8.29-6.84,15.01-15.3,15.01c-8.44,0-15.29-6.72-15.29-15.01c0-8.28,6.85-15.01,15.29-15.01
	C137.39,167.4,144.23,174.13,144.23,182.41z M147.58,222.19v-13.33h-0.02c-0.08-5.93-3-11.18-7.49-14.52 M118.62,193.47
	c-5.21,3.25-8.69,8.92-8.78,15.39v0.07c0,0.06-0.01,0.11-0.01,0.17s0.01,0.11,0.01,0.17v12.92 M198.09,134.17
	c0,12.99-9.81,23.52-21.9,23.52c-12.08,0-21.89-10.53-21.89-23.52s9.81-23.52,21.89-23.52
	C188.29,110.64,198.09,121.17,198.09,134.17z M132.93,114.36c0,14.42-11.93,26.11-26.63,26.11c-14.7,0-26.62-11.69-26.62-26.11
	c0-14.43,11.92-26.12,26.62-26.12C121,88.23,132.93,99.93,132.93,114.36z M215.54,222.19V184h-0.06
	c-0.2-15.03-9.36-27.93-22.49-33.79 M144.69,164.42l-0.06-3.78c-0.16-12.8-6.84-24.06-16.93-30.74 M84.98,129.83
	c-10.16,6.67-16.89,17.96-17.05,30.81h-0.01v0.14c0,0.12-0.01,0.23-0.01,0.34c0,0.12,0.01,0.23,0.01,0.34v61 M205.83,157.87v-21.45
	h-0.04c-0.21-17.81-13.34-32.18-29.53-32.18c-16.18,0-29.32,14.37-29.53,32.18v0.12c0,0.1-0.01,0.2-0.01,0.3
	c0,0.1,0.01,0.2,0.01,0.31v20.72 M9.31,234.74c-0.04-0.01-0.08-0.01-0.12-0.02c-0.14,0.05-0.35,0.21-0.3,0.25
	c0.14-0.07,0.29-0.14,0.42-0.2C9.32,234.76,9.31,234.75,9.31,234.74z M12.45,224.5c-0.74-0.4-1.59-0.65-2.48-0.65
	c-2.89,0-5.22,2.34-5.22,5.24c0,2.63,1.93,5.22,4.44,5.63c0.07-0.03,0.12-0.03,0.12,0.02c0.08,0.01,0.18,0.03,0.27,0.03
	c-0.46,0.2-0.65,0.24-0.69,0.2c-3.44,1.69-5.81,5.65-5.81,9.73c0,5.67,4.58,10.26,10.22,10.26c3.84,0,7.19-2.13,8.93-5.28
	c0,2.89,2.88,5.79,6.3,5.49c2.88-0.25,5.87-2.62,5.34-6.47c0,0,14.72-16.31,51.39,0.05c18.41,8.22,31.46,2.7,40.35,1.55
	c2.28,6.55,8.41,11.37,15.72,11.37c7.35,0,13.65-4.86,15.92-11.46c8.89,1.27,20.41,6.5,39.24-1.91
	c36.67-16.37,53.09,0.38,53.09,0.38c-0.53,3.85,2.46,6.22,5.34,6.47c3.42,0.3,6.3-2.59,6.3-5.49c1.74,3.14,5.09,5.28,8.93,5.28
	c5.65,0,10.22-4.59,10.22-10.26c0-4.08-2.38-8.04-5.82-9.73c-0.03,0.03-0.21,0-0.68-0.2c0.09-0.01,0.18-0.02,0.27-0.03
	c0.01-0.04,0.05-0.04,0.12-0.02c2.51-0.42,4.44-3.01,4.44-5.63c0-2.89-2.34-5.24-5.22-5.24c-0.9,0-1.73,0.25-2.48,0.65
	 M274.15,234.78c0.14,0.06,0.28,0.14,0.42,0.2c0.05-0.04-0.15-0.2-0.29-0.25c-0.04,0.01-0.08,0.01-0.12,0.02
	C274.14,234.75,274.14,234.76,274.15,234.78z M9.07,53.87c-0.15-0.06-0.29-0.13-0.43-0.2c-0.05,0.04,0.16,0.2,0.3,0.25
	c0.04-0.01,0.08-0.01,0.12-0.02C9.07,53.9,9.07,53.89,9.07,53.87z M271.01,224.5c-0.95-6.93,3.54-27.69,3.54-27.69
	c5.23-27.27,2.77-33.46,0-40.82c0,0-4.6-10.71,0-20.48c3.35-7.11,5.9-16.82,0-40.82c-3.72-15.15-3.94-24.76-3.29-30.54
	c0.74,0.41,1.58,0.66,2.48,0.66c2.89,0,5.22-2.35,5.22-5.24c0-2.62-1.93-5.21-4.45-5.63c-0.06,0.03-0.11,0.03-0.12-0.02
	c-0.08-0.01-0.18-0.03-0.27-0.04c0.47-0.19,0.65-0.23,0.69-0.2c3.43-1.69,5.81-5.65,5.81-9.73c0-5.67-4.58-10.26-10.22-10.26
	c-3.85,0-7.2,2.13-8.94,5.28c0-2.89-2.89-5.79-6.3-5.5c-2.88,0.26-5.88,2.63-5.33,6.48c0,0-14.72,15.46-51.39-0.91
	c-18.96-8.46-32.23-7.03-41.12-5.71c-2.2-6.71-8.48-11.55-15.9-11.55c-7.39,0-13.65,4.8-15.88,11.46
	c-8.88-1.19-21.99-2.47-40.52,5.8c-36.67,16.37-51.4,0.91-51.4,0.91c0.54-3.85-2.46-6.22-5.33-6.48c-3.42-0.29-6.3,2.6-6.3,5.5
	c-1.75-3.15-5.09-5.28-8.93-5.28c-5.65,0-10.22,4.59-10.22,10.26c0,4.08,2.37,8.04,5.81,9.73c0.05-0.03,0.22,0,0.68,0.2
	c-0.08,0.01-0.18,0.03-0.26,0.04c-0.01,0.04-0.06,0.04-0.12,0.02c-2.51,0.42-4.44,3.01-4.44,5.63c0,2.9,2.34,5.24,5.22,5.24
	c0.9,0,1.73-0.25,2.48-0.66c0.66,5.78,0.43,15.39-3.29,30.54c-5.9,24-3.35,33.71,0,40.82c4.61,9.78,0,20.48,0,20.48
	c-2.77,7.36-5.23,13.55,0,40.82c0,0,4.49,20.76,3.54,27.69 M274.39,53.91c0.04,0.01,0.08,0.01,0.12,0.02
	c0.15-0.06,0.35-0.21,0.31-0.25c-0.14,0.07-0.29,0.14-0.43,0.2C274.39,53.89,274.39,53.9,274.39,53.91z M26.14,238.19
	c0,2.9-2.34,5.24-5.22,5.24c-2.88,0-5.22-2.35-5.22-5.24c0-2.89,2.34-5.24,5.22-5.24C23.81,232.96,26.14,235.3,26.14,238.19z
	 M269.18,238.19c0,2.9-2.34,5.24-5.23,5.24c-2.88,0-5.22-2.35-5.22-5.24c0-2.89,2.34-5.24,5.22-5.24
	C266.84,232.96,269.18,235.3,269.18,238.19z M26.14,50.19c0,2.89-2.34,5.24-5.22,5.24c-2.88,0-5.22-2.35-5.22-5.24
	c0-2.89,2.34-5.24,5.22-5.24C23.81,44.95,26.14,47.29,26.14,50.19z M269.18,50.19c0,2.89-2.34,5.24-5.23,5.24
	c-2.88,0-5.22-2.35-5.22-5.24c0-2.89,2.34-5.24,5.22-5.24C266.84,44.95,269.18,47.29,269.18,50.19z M245.52,222.19H39.22V69.26
	h206.3V222.19z M254.95,231.7H29.88V57.93h225.07V231.7z"/>
</svg>
