<svg version="1.1" xmlns="http://www.w3.org/2000/svg" xmlns:xlink="http://www.w3.org/1999/xlink" x="0px" y="0px" width="157px" height="127px" viewBox="0 0 156.8 127.1" style="enable-background:new 0 0 156.8 127.1;" xml:space="preserve">
<style type="text/css">
	.st0{fill:none;stroke:#e56a54;stroke-width:2;stroke-linecap:round;stroke-linejoin:round;stroke-miterlimit:10;}
	
		.st1{fill-rule:evenodd;clip-rule:evenodd;fill:none;stroke:#e56a54;stroke-width:2;stroke-linecap:round;stroke-linejoin:round;stroke-miterlimit:10;}
	.st2{fill:#5A5654;}
</style>
<g id="Layer_1">
<g>
<g>
<polygon class="st0" points="151.2,110.1 115.8,124.6 115.8,92.4 151.2,77.9 			"></polygon>
<polyline class="st0" points="79.7,80.1 115.8,92.4 115.8,124.6 79.7,113.1 			"></polyline>
<line class="st0" x1="151.2" y1="77.9" x2="114.2" y2="67.4"></line>
		</g>
	</g>
<g>
<g>
<polygon class="st0" points="79.7,113.1 51,124.6 51,89.9 79.7,80.1 			"></polygon>
<polygon class="st0" points="7.2,107.4 51,124.6 51,89.9 7.2,76.8 			"></polygon>
<line class="st0" x1="40.3" y1="67.4" x2="7.2" y2="76.8"></line>
		</g>
	</g>
<g>
<g>
<polygon class="st0" points="114.2,67.1 79.7,80.1 79.7,48.4 114.2,36 			"></polygon>
<line class="st0" x1="79.7" y1="48.4" x2="40.3" y2="34.9"></line>
<polyline class="st0" points="40.3,51.1 40.3,67.4 79.7,80.1 			"></polyline>
<polyline class="st0" points="114.2,36 77.3,24.4 40.3,34.9 			"></polyline>
		</g>
	</g>
<polyline class="st0" points="77.5,24.5 66.5,4.4 29.3,14.6 40.3,34.9 	"></polyline>
<polyline class="st0" points="40.3,34.9 79.7,48.4 62.9,59.3 26.5,46.1 40.3,34.9 	"></polyline>
<polyline class="st0" points="77.3,24.4 96.6,23.6 132,34.7 114.2,36 	"></polyline>
</g>
<g id="Layer_2">
</g>
<g id="Layer_3">
</g>
</svg>