<?xml version="1.0" encoding="utf-8"?>
<!-- Generator: Adobe Illustrator 19.1.1, SVG Export Plug-In . SVG Version: 6.00 Build 0)  -->
<svg version="1.1" xmlns="http://www.w3.org/2000/svg" xmlns:xlink="http://www.w3.org/1999/xlink" x="0px" y="0px"
	 viewBox="0 0 152.4 126.8" style="enable-background:new 0 0 152.4 126.8;" xml:space="preserve">
<style type="text/css">
	.st0{fill:none;stroke:#e56a54;stroke-width:2;stroke-linecap:round;stroke-linejoin:round;stroke-miterlimit:10;}
	
		.st1{fill-rule:evenodd;clip-rule:evenodd;fill:none;stroke:#e56a54;stroke-width:2;stroke-linecap:round;stroke-linejoin:round;stroke-miterlimit:10;}
	.st2{fill:#5A5654;}
</style>
<g id="Layer_1">
	<g>
		<g>
			<rect x="19.5" y="20.1" class="st0" width="116.7" height="89.8"/>
			<rect x="24.4" y="26" class="st0" width="107" height="79"/>
			<path class="st0" d="M143.6,16.1c0,1.5-1.2,2.7-2.7,2.7c-1.5,0-2.7-1.2-2.7-2.7c0-1.5,1.2-2.7,2.7-2.7
				C142.4,13.4,143.6,14.6,143.6,16.1z"/>
			<path class="st0" d="M17.6,16.1c0,1.5-1.2,2.7-2.7,2.7c-1.5,0-2.7-1.2-2.7-2.7c0-1.5,1.2-2.7,2.7-2.7
				C16.4,13.4,17.6,14.6,17.6,16.1z"/>
			<circle class="st0" cx="140.9" cy="113.3" r="2.7"/>
			<circle class="st0" cx="14.9" cy="113.3" r="2.7"/>
			<g>
				<path class="st0" d="M146.3,18C146.3,18,146.3,18,146.3,18c0.1,0,0.2-0.1,0.2-0.1C146.5,18,146.4,18,146.3,18
					C146.3,18,146.3,18,146.3,18z"/>
				<path class="st0" d="M144.6,106.2c-0.5-3.6,1.8-14.3,1.8-14.3c2.7-14.1,1.4-17.3,0-21.1c0,0-2.4-5.5,0-10.6
					c1.7-3.7,3.1-8.7,0-21.1c-1.9-7.8-2-12.8-1.7-15.8c0.4,0.2,0.8,0.3,1.3,0.3c1.5,0,2.7-1.2,2.7-2.7c0-1.4-1-2.7-2.3-2.9
					c0,0-0.1,0-0.1,0c0,0-0.1,0-0.1,0c0.2-0.1,0.3-0.1,0.4-0.1c1.8-0.9,3-2.9,3-5c0-2.9-2.4-5.3-5.3-5.3c-2,0-3.7,1.1-4.6,2.7
					c0-1.5-1.5-3-3.3-2.8c-1.5,0.1-3,1.4-2.8,3.3c0,0-7.6,8-26.6-0.5C97.1,6,90.2,6.7,85.6,7.4c-1.1-3.5-4.4-6-8.2-6
					c-3.8,0-7.1,2.5-8.2,5.9c-4.6-0.6-11.4-1.3-21,3c-19,8.5-26.6,0.5-26.6,0.5c0.3-2-1.3-3.2-2.8-3.3c-1.8-0.2-3.3,1.3-3.3,2.8
					c-0.9-1.6-2.6-2.7-4.6-2.7c-2.9,0-5.3,2.4-5.3,5.3c0,2.1,1.2,4.2,3,5c0,0,0.1,0,0.4,0.1c0,0-0.1,0-0.1,0c0,0,0,0-0.1,0
					c-1.3,0.2-2.3,1.6-2.3,2.9c0,1.5,1.2,2.7,2.7,2.7c0.5,0,0.9-0.1,1.3-0.3c0.3,3,0.2,8-1.7,15.8c-3.1,12.4-1.7,17.4,0,21.1
					c2.4,5.1,0,10.6,0,10.6c-1.4,3.8-2.7,7,0,21.1c0,0,2.3,10.7,1.8,14.3"/>
				<path class="st0" d="M8.7,18c-0.1,0-0.1-0.1-0.2-0.1C8.5,17.9,8.6,18,8.7,18C8.7,18,8.7,18,8.7,18C8.7,18,8.7,18,8.7,18z"/>
			</g>
			<g>
				<path class="st0" d="M146.2,111.5c0.1,0,0.1,0.1,0.2,0.1C146.4,111.6,146.3,111.5,146.2,111.5
					C146.2,111.5,146.2,111.5,146.2,111.5C146.2,111.5,146.2,111.5,146.2,111.5z"/>
				<path class="st0" d="M10.5,106.2c-0.4-0.2-0.8-0.3-1.3-0.3c-1.5,0-2.7,1.2-2.7,2.7c0,1.4,1,2.7,2.3,2.9c0,0,0.1,0,0.1,0
					c0,0,0.1,0,0.1,0c-0.2,0.1-0.3,0.1-0.4,0.1c-1.8,0.9-3,2.9-3,5c0,2.9,2.4,5.3,5.3,5.3c2,0,3.7-1.1,4.6-2.7c0,1.5,1.5,3,3.3,2.8
					c1.5-0.1,3-1.4,2.8-3.3c0,0,7.6-8.4,26.6,0c9.5,4.2,16.3,1.4,20.9,0.8c1.2,3.4,4.4,5.9,8.2,5.9c3.8,0,7.1-2.5,8.3-5.9
					c4.6,0.7,10.6,3.4,20.3-1c19-8.5,27.5,0.2,27.5,0.2c-0.3,2,1.3,3.2,2.8,3.3c1.8,0.2,3.3-1.3,3.3-2.8c0.9,1.6,2.6,2.7,4.6,2.7
					c2.9,0,5.3-2.4,5.3-5.3c0-2.1-1.2-4.2-3-5c0,0-0.1,0-0.4-0.1c0,0,0.1,0,0.1,0c0,0,0,0,0.1,0c1.3-0.2,2.3-1.6,2.3-2.9
					c0-1.5-1.2-2.7-2.7-2.7c-0.5,0-0.9,0.1-1.3,0.3"/>
				<path class="st0" d="M8.9,111.5C8.8,111.5,8.8,111.5,8.9,111.5c-0.1,0-0.2,0.1-0.2,0.1C8.7,111.6,8.8,111.5,8.9,111.5
					C8.9,111.5,8.9,111.5,8.9,111.5z"/>
			</g>
		</g>
	</g>
	<g>
		<g>
			<path class="st1" d="M110.8,71.8V60.7h0c-0.1-9.2-6.9-16.6-15.3-16.6c-8.4,0-15.2,7.4-15.3,16.6l0,0v0.1c0,0.1,0,0.1,0,0.2
				c0,0.1,0,0.1,0,0.2v10.7"/>
			<path class="st1" d="M48.1,57.3c-5.3,3.4-8.8,9.3-8.8,15.9h0v0.1c0,0.1,0,0.1,0,0.2c0,0.1,0,0.1,0,0.2v31.5"/>
			<path class="st1" d="M79.1,75.1l0-2c-0.1-6.6-3.5-12.4-8.8-15.9"/>
			<path class="st1" d="M115.8,105V85.3h0c-0.1-7.8-4.9-14.4-11.7-17.5"/>
			<path class="st1" d="M73,49.3c0,7.5-6.2,13.5-13.8,13.5c-7.6,0-13.8-6-13.8-13.5c0-7.5,6.2-13.5,13.8-13.5
				C66.8,35.8,73,41.8,73,49.3z"/>
			<path class="st1" d="M106.7,59.5c0,6.7-5.1,12.2-11.4,12.2c-6.3,0-11.4-5.4-11.4-12.2c0-6.7,5.1-12.2,11.4-12.2
				C101.7,47.4,106.7,52.8,106.7,59.5z"/>
			<g>
				<g>
					<path class="st1" d="M65.5,90.2c-2.7,1.7-4.5,4.6-4.5,8l0,0v0c0,0,0,0.1,0,0.1c0,0,0,0.1,0,0.1v6.7"/>
					<path class="st1" d="M80.6,105v-6.9h0c0-3.1-1.6-5.8-3.9-7.5"/>
					<path class="st1" d="M78.8,84.4c0,4.3-3.5,7.8-7.9,7.8c-4.4,0-7.9-3.5-7.9-7.8c0-4.3,3.6-7.8,7.9-7.8
						C75.3,76.7,78.8,80.2,78.8,84.4z"/>
				</g>
				<g>
					<path class="st1" d="M100.1,105v-6.9h0c0-3.2-1.7-6-4.1-7.7"/>
					<path class="st1" d="M84.9,90.3c-2.6,1.7-4.3,4.6-4.3,7.8h0v0c0,0,0,0.1,0,0.1c0,0,0,0.1,0,0.1v6"/>
					<ellipse class="st1" cx="90" cy="84.4" rx="7.9" ry="7.8"/>
				</g>
			</g>
			<path class="st0" d="M91,63.4c0,0,4.4,5.5,8.7,0"/>
			<path class="st0" d="M54.8,55.4c0,0,4.8,5.7,8.7,0"/>
			<path class="st0" d="M46.3,50.8l3.2,0.2c0,0,0.1-10.2,5-8.7c2.7,0.8,4.7,1.2,8.5,0c3.2-1,6.2,1.1,6.2,8.3l2.6-0.2"/>
			<g>
				<line class="st1" x1="89.8" y1="77.6" x2="89.8" y2="81.3"/>
				<line class="st1" x1="93.1" y1="77.6" x2="93.1" y2="81.3"/>
				<line class="st1" x1="86.5" y1="77.6" x2="86.5" y2="81.3"/>
			</g>
			<g>
				<line class="st1" x1="71" y1="77.6" x2="71" y2="81.3"/>
				<line class="st1" x1="74.3" y1="77.6" x2="74.3" y2="81.3"/>
				<line class="st1" x1="67.6" y1="77.6" x2="67.6" y2="81.3"/>
			</g>
			<path class="st1" d="M86.9,68.2c-4.7,2.3-8.3,6.4-9.9,11.3"/>
		</g>
	</g>
</g>
<g id="Layer_2">
</g>
<g id="Layer_3">
</g>
</svg>
