<svg xmlns="http://www.w3.org/2000/svg" width="206" height="122" viewBox="0 0 206 122"><path d="M825.8 312.1C825.8 332.5 809.3 349 788.9 349 768.5 349 752 332.5 752 312.1 752 291.7 768.5 275.2 788.9 275.2 809.3 275.2 825.8 291.7 825.8 312.1L825.8 312.1ZM954.9 312.1C954.9 332.5 938.3 349 918 349 897.6 349 881 332.5 881 312.1 881 291.7 897.6 275.2 918 275.2 938.3 275.2 954.9 291.7 954.9 312.1L954.9 312.1ZM928.5 312.1C928.5 317.9 923.8 322.6 918 322.6 912.2 322.6 907.5 317.9 907.5 312.1 907.5 306.3 912.2 301.6 918 301.6 923.8 301.6 928.5 306.3 928.5 312.1L928.5 312.1ZM799.4 312.1C799.4 317.9 794.7 322.6 788.9 322.6 783.1 322.6 778.4 317.9 778.4 312.1 778.4 306.3 783.1 301.6 788.9 301.6 794.7 301.6 799.4 306.3 799.4 312.1L799.4 312.1ZM862.3 318C862.3 325.9 855.8 332.3 847.9 332.3 839.9 332.3 833.5 325.9 833.5 318 833.5 310 839.9 303.6 847.9 303.6 855.8 303.6 862.3 310 862.3 318L862.3 318ZM854.5 318C854.5 321.6 851.5 324.5 847.9 324.5 844.2 324.5 841.3 321.6 841.3 318 841.3 314.3 844.2 311.4 847.9 311.4 851.5 311.4 854.5 314.3 854.5 318L854.5 318ZM795 303.6C796 304.4 829.3 263.3 829.3 263.3L899.2 254 795 303.6ZM915.9 301.8L890.7 231.9 879.7 231.9 915.9 301.8ZM855.9 306C856.9 306.7 901 260.5 901 260.5L855.9 306ZM839.9 306L823.5 249.7 839.9 306ZM836 244C836.2 245.8 834 247.9 831 248.6L814.2 252.6C811.2 253.3 808.3 251.4 807.6 248.4L807.2 246.2C806.5 243.2 808.5 240.8 811.6 240.8L830 240.8C833 240.8 835.7 242.3 836 244L836 244ZM879.7 231.9C879.7 233.4 878 234.7 875.9 234.7L869 234.7C867 234.7 865.3 233.4 865.3 231.9 865.3 230.3 867 229 869 229L875.9 229C878 229 879.7 230.3 879.7 231.9L879.7 231.9Z" transform="translate(-750 -228)" stroke="#fff" stroke-width="2" fill="none" fill-rule="evenodd"/></svg>