<svg focusable="false" class="lc-section-complete__svg svg-bird" xmlns="http://www.w3.org/2000/svg" viewBox="0 0 62.97822 61.6328">
    <path class="bitd_body" style="fill: none;stroke: #576baa;stroke-linecap: round;stroke-linejoin: round;stroke-width: 1.86816847679864px" d="M47.757,49.43845l8.55175,10.94717M6.41882,9.64193.93408,12.3393,5.87,15.76253M36.676,49.36185,30.66171,60.582h-3.1681m1.68815-12.0285L22.734,60.582H19.56584M11.22607,9.099a2.49992,2.49992,0,1,0,4.99985,0M62.04414,60.69871,49.46081,44.121C38.60213,29.07613,19.7778,5.95023,17.66274,3.04313,14.73631-.9795,8.15462,1.207,7.05691,5.77992c-1.0962,4.5752-2.55756,21.0257,1.4636,28.337,0,0,7.22126,15.53055,33.81425,15.21745l8.02966,11.36438Z"/>
    <path class="bird__wing" style="fill: none;stroke: #576baa;stroke-linecap: round;stroke-linejoin: round;stroke-width: 1.86816847679864px" d="M14.9401,22.74358S12.95817,38.939,31.50886,41.7799c10.68238,1.63538,20.33923-7.10079,20.33923-7.10079"/>
</svg>
