<svg id="Layer_1" data-name="Layer 1" xmlns="http://www.w3.org/2000/svg" viewBox="0 0 90 90" width="100px" height="100px">
  <defs>
    <style>.cls-1{fill:#fff;}</style>
  </defs>
  <title>emailheaderArtboard 1</title>
  <path class="cls-1" d="M45,90A45,45,0,1,1,90,45,45,45,0,0,1,45,90ZM45,7.81A37.19,37.19,0,1,0,82.39,45,37.33,37.33,0,0,0,45,7.81Z"/>
  <path class="cls-1" d="M55.93,70H33.77a3.4,3.4,0,0,1-3.4-3.4V23.32a3.4,3.4,0,0,1,3.4-3.4H55.93a3.4,3.4,0,0,1,3.4,3.4V66.65A3.4,3.4,0,0,1,55.93,70ZM33.77,21a2.27,2.27,0,0,0-2.27,2.27V66.65a2.27,2.27,0,0,0,2.27,2.27H55.93a2.27,2.27,0,0,0,2.27-2.27V23.32A2.27,2.27,0,0,0,55.93,21Z"/>
  <path class="cls-1" d="M44.78,68a2.44,2.44,0,1,1,2.44-2.44A2.44,2.44,0,0,1,44.78,68Zm0-3.75a1.31,1.31,0,1,0,1.31,1.31A1.31,1.31,0,0,0,44.78,64.21Z"/>
  <path class="cls-1" d="M63.42,48.4A.65.65,0,0,1,63,47.23a4.77,4.77,0,0,0,0-7.69.65.65,0,1,1,.77-1,6.06,6.06,0,0,1,0,9.78A.65.65,0,0,1,63.42,48.4Z"/>
  <path class="cls-1" d="M66.28,49.91a.65.65,0,0,1-.38-1.17,6.54,6.54,0,0,0,0-10.54.65.65,0,1,1,.77-1,7.83,7.83,0,0,1,0,12.62A.65.65,0,0,1,66.28,49.91Z"/>
  <path class="cls-1" d="M26.93,48.57a.65.65,0,0,1-.38-.13,6.06,6.06,0,0,1,0-9.78.65.65,0,1,1,.77,1,4.77,4.77,0,0,0,0,7.69.65.65,0,0,1-.39,1.17Z"/>
  <path class="cls-1" d="M24.07,49.91a.64.64,0,0,1-.38-.13,7.88,7.88,0,0,1-3.19-6.31,7.78,7.78,0,0,1,3.2-6.31.65.65,0,0,1,.77,1,6.54,6.54,0,0,0,0,10.54.65.65,0,0,1-.38,1.17Z"/>
</svg>