<?xml version="1.0" encoding="utf-8"?>
<!DOCTYPE svg PUBLIC "-//W3C//DTD SVG 1.1//EN" "http://www.w3.org/Graphics/SVG/1.1/DTD/svg11.dtd">
<svg version="1.1" id="svg-cup" xmlns="http://www.w3.org/2000/svg" xmlns:xlink="http://www.w3.org/1999/xlink" x="0px" y="0px" width="100px" height="100px" viewBox="100 100 100 100" enable-background="new 0 0 100 100" xml:space="preserve">
    <style>
        .steam, .cup, .table { stroke: #00b5e2; }
    </style>
    <path fill="none" class="steam" stroke-width="1.5" stroke-linecap="round" stroke-linejoin="round" stroke-miterlimit="10" d="M134.26,129.89h4.56c3.93,0,7.12,3.19,7.12,7.12"/>
    <path fill="none" class="steam" stroke-width="1.5" stroke-linecap="round" stroke-linejoin="round" stroke-miterlimit="10" d="M127.13,122.77c0,3.93,3.19,7.12,7.12,7.12h4.56"/>
    <path fill="none" class="steam" stroke-width="1.5" stroke-linecap="round" stroke-linejoin="round" stroke-miterlimit="10" d="M157.42,137.4c0-8.3-6.88-15.02-15.37-15.02"/>
        
    <path fill="none" class="cup" stroke-width="1.5" stroke-linecap="round" stroke-linejoin="round" stroke-miterlimit="10" d="M168.27,150.58c0,13.07-10.59,23.66-23.66,23.66c-13.06,0-23.65-10.59-23.65-23.66v-5.59h53.18"/>
    <path fill="none" class="cup" stroke-width="1.5" stroke-linecap="round" stroke-linejoin="round" stroke-miterlimit="10" d="M180.01,150.86c0-3.24-2.63-5.87-5.87-5.87c-1.57,0-3,0.62-4.06,1.63c-1.12,1.07-1.81,2.57-1.81,4.24c0,3.25,2.63,5.87,5.87,5.87 C177.38,156.73,180.01,154.11,180.01,150.86z"/>
    <line fill="none" class="cup" stroke-width="1.5" stroke-linecap="round" stroke-linejoin="round" stroke-miterlimit="10" x1="168.27" y1="150.36" x2="168.27" y2="144.99"/>
    
    <line fill="none" class="table" stroke-width="1.5" stroke-linecap="round" stroke-linejoin="round" stroke-miterlimit="10" x1="119.85" y1="174.23" x2="172.03" y2="174.23"/>
    <line fill="none" class="table" stroke-width="1.5" stroke-linecap="round" stroke-linejoin="round" stroke-miterlimit="10" x1="134.6" y1="178.98" x2="157.42" y2="178.98"/>
</svg>
