<?xml version="1.0" encoding="utf-8"?>
<!-- Generator: Adobe Illustrator 19.1.1, SVG Export Plug-In . SVG Version: 6.00 Build 0)  -->
<svg version="1.1" xmlns="http://www.w3.org/2000/svg" xmlns:xlink="http://www.w3.org/1999/xlink" x="0px" y="0px"
	 viewBox="0 0 158.8 136.4" style="enable-background:new 0 0 158.8 136.4;" xml:space="preserve">
<style type="text/css">
	.st0{fill:none;stroke:#e56a54;stroke-width:2;stroke-linecap:round;stroke-linejoin:round;stroke-miterlimit:10;}
	
		.st1{fill-rule:evenodd;clip-rule:evenodd;fill:none;stroke:#e56a54;stroke-width:2;stroke-linecap:round;stroke-linejoin:round;stroke-miterlimit:10;}
	.st2{fill:#5A5654;}
</style>
<g id="Layer_1">
	<g>
		<g>
			<rect x="22.6" y="23.7" class="st0" width="117.2" height="90.2"/>
			<rect x="27.4" y="29.6" class="st0" width="107.4" height="79.4"/>
			<circle class="st0" cx="144.4" cy="19.7" r="2.7"/>
			<circle class="st0" cx="17.9" cy="19.7" r="2.7"/>
			<circle class="st0" cx="144.4" cy="117.2" r="2.7"/>
			<circle class="st0" cx="17.9" cy="117.2" r="2.7"/>
			<g>
				<path class="st0" d="M149.9,21.6C149.9,21.6,149.9,21.6,149.9,21.6c0.1,0,0.2-0.1,0.2-0.1C150,21.5,149.9,21.6,149.9,21.6
					C149.9,21.6,149.9,21.6,149.9,21.6z"/>
				<path class="st0" d="M148.1,110.1c-0.5-3.6,1.8-14.4,1.8-14.4c2.7-14.1,1.4-17.4,0-21.2c0,0-2.4-5.6,0-10.6
					c1.7-3.7,3.1-8.7,0-21.2c-1.9-7.9-2.1-12.9-1.7-15.8c0.4,0.2,0.8,0.3,1.3,0.3c1.5,0,2.7-1.2,2.7-2.7c0-1.4-1-2.7-2.3-2.9
					c0,0-0.1,0-0.1,0c0,0-0.1,0-0.1,0c0.2-0.1,0.3-0.1,0.4-0.1c1.8-0.9,3-2.9,3-5c0-2.9-2.4-5.3-5.3-5.3c-2,0-3.7,1.1-4.7,2.7
					c0-1.5-1.5-3-3.3-2.8c-1.5,0.1-3.1,1.4-2.8,3.4c0,0-7.7,6.7-26.8-1.8c-9.9-4.4-16.8-5-21.4-4.3c-1.1-3.5-4.4-6-8.3-6
					c-3.8,0-7.1,2.5-8.3,5.9c-4.6-0.6-11.5,0-21.1,4.3c-19.1,8.5-26.8,1.8-26.8,1.8c0.3-2-1.3-3.2-2.8-3.4c-1.8-0.2-3.3,1.3-3.3,2.8
					c-0.9-1.6-2.7-2.7-4.7-2.7c-2.9,0-5.3,2.4-5.3,5.3c0,2.1,1.2,4.2,3,5c0,0,0.1,0,0.4,0.1c0,0-0.1,0-0.1,0c0,0,0,0-0.1,0
					c-1.3,0.2-2.3,1.6-2.3,2.9c0,1.5,1.2,2.7,2.7,2.7c0.5,0,0.9-0.1,1.3-0.3c0.3,3,0.2,8-1.7,15.8c-3.1,12.5-1.7,17.5,0,21.2
					c2.4,5.1,0,10.6,0,10.6c-1.4,3.8-2.7,7,0,21.2c0,0,2.3,10.8,1.8,14.4"/>
				<path class="st0" d="M11.7,21.6c-0.1,0-0.1-0.1-0.2-0.1C11.5,21.5,11.6,21.6,11.7,21.6C11.7,21.6,11.7,21.6,11.7,21.6
					C11.7,21.6,11.7,21.6,11.7,21.6z"/>
			</g>
			<g>
				<path class="st0" d="M149.7,115.5c0.1,0,0.1,0.1,0.2,0.1C150,115.5,149.9,115.5,149.7,115.5
					C149.8,115.4,149.8,115.4,149.7,115.5C149.7,115.5,149.7,115.5,149.7,115.5z"/>
				<path class="st0" d="M13.5,110.1c-0.4-0.2-0.8-0.3-1.3-0.3c-1.5,0-2.7,1.2-2.7,2.7c0,1.4,1,2.7,2.3,2.9c0,0,0.1,0,0.1,0
					c0,0,0.1,0,0.1,0c-0.2,0.1-0.3,0.1-0.4,0.1c-1.8,0.9-3,2.9-3,5c0,2.9,2.4,5.3,5.3,5.3c2,0,3.7-1.1,4.7-2.7c0,1.5,1.5,3,3.3,2.8
					c1.5-0.1,3.1-1.4,2.8-3.4c0,0,7.7-6.7,26.8,1.8c9.6,4.3,16.4,4.9,21,4.3c1.2,3.4,4.4,5.8,8.2,5.8c3.8,0,7.1-2.5,8.2-5.9
					c4.6,0.7,11.5,0.1,21.3-4.3c19.1-8.5,26.8-1.8,26.8-1.8c-0.3,2,1.3,3.2,2.8,3.4c1.8,0.2,3.3-1.3,3.3-2.8
					c0.9,1.6,2.7,2.7,4.7,2.7c2.9,0,5.3-2.4,5.3-5.3c0-2.1-1.2-4.2-3-5c0,0-0.1,0-0.4-0.1c0,0,0.1,0,0.1,0c0,0,0,0,0.1,0
					c1.3-0.2,2.3-1.6,2.3-2.9c0-1.5-1.2-2.7-2.7-2.7c-0.5,0-0.9,0.1-1.3,0.3"/>
				<path class="st0" d="M11.9,115.4C11.9,115.4,11.8,115.4,11.9,115.4c-0.1,0-0.2,0.1-0.2,0.1C11.7,115.5,11.8,115.5,11.9,115.4
					C11.9,115.5,11.9,115.5,11.9,115.4z"/>
			</g>
			<path class="st0" d="M89.2,14.1c0,0,4.3-1.6,11.2,1.2c8,3.2,9.7,4.7,17.6,4.9"/>
			<path class="st0" d="M72.2,14c0,0-4.3-1.5-11.2,1.2c-8,3.2-9.7,4.7-17.6,4.9"/>
			<path class="st0" d="M89.2,123.8c0,0,4.3,1.5,11.2-1.2c8-3.2,9.7-4.7,17.6-4.9"/>
			<path class="st0" d="M72.2,123.9c0,0-4.3,1.5-11.2-1.2c-8-3.2-9.7-4.7-17.6-4.9"/>
			<path class="st0" d="M143.7,28.6c0,0,1.4,13,2.5,20.1c1,7-0.5,10.9-1,12"/>
			<path class="st0" d="M143.7,108.9c0,0,1.4-13,2.5-20.1c1-7-0.5-10.9-1-12"/>
			<path class="st0" d="M18.4,28.6c0,0-1.4,13-2.5,20.1c-1,7,0.5,10.9,1,12"/>
			<path class="st0" d="M18.4,108.9c0,0-1.4-13-2.5-20.1c-1-7,0.5-10.9,1-12"/>
			<polygon class="st0" points="80.6,20.9 74.9,13 80.6,5.2 86.4,13 			"/>
			<polygon class="st0" points="80.6,132.1 74.9,124.2 80.6,116.4 86.4,124.2 			"/>
		</g>
	</g>
</g>
<g id="Layer_2">
</g>
<g id="Layer_3">
</g>
</svg>
