<?xml version="1.0" encoding="utf-8"?>
<!-- Generator: Adobe Illustrator 19.1.1, SVG Export Plug-In . SVG Version: 6.00 Build 0)  -->
<svg version="1.1" id="Layer_1" xmlns="http://www.w3.org/2000/svg" xmlns:xlink="http://www.w3.org/1999/xlink" x="0px" y="0px"
	 width="555px" height="321px" viewBox="-28.5 42.5 555 321" style="enable-background:new -28.5 42.5 555 321;"
	 xml:space="preserve">
<style type="text/css">
	.st0{fill:none;stroke:#FFFFFF;stroke-width:2;stroke-linecap:round;stroke-linejoin:round;stroke-miterlimit:10;}
</style>

<desc>Created with Sketch Beta.</desc>
<g>
	<rect x="438.4" y="325.2" class="st0" width="60.3" height="16.7"/>
	<path class="st0" d="M487.7,316.6c0.1-1.3-0.6-2.5-1.4-2.5h-47.4c-0.8,0-1.4,1.4-1.4,2.5l0,0H487.7z"/>
	<path class="st0" d="M504.7,347.5L504.7,347.5c0-2.4-1.7-5.7-6.4-5.7h-26h-8h-26c-4.7,0-6.4,3.3-6.4,5.7l0,0H504.7z"/>
	<path class="st0" d="M432,319.4L432,319.4c0,2.4,1.7,5.7,6.4,5.7h26h8h26c4.7,0,6.4-3.3,6.4-5.7l0,0H432z"/>
	<path class="st0" d="M515.8,319.5h-4.3c-2.7,0-5,2.2-5,5v1.5c0,2.7-2.2,5-5,5h-2.9"/>
	<path class="st0" d="M491.1,330.5"/>
	<path class="st0" d="M490.8,319.4v-1.2c0-2.5,2.5-4.5,5.6-4.5h2.6c3.1,0,5.6,2,5.6,4.5v1.2"/>
	<circle class="st0" cx="518.6" cy="319.5" r="2.9"/>
	<path class="st0" d="M501.3,303.6"/>
	<path class="st0" d="M494.3,314.1c20.2-6.6,16.7-24.9,16.7-24.9c-1-10.8-12-22.4-23.1-23.3c-28.4-3.2-41.7,23.4-44.4,40.7V201.4
		c2.1,5.4,2.5,28.9,44.4,44.1c16.1,4.9,25.5,14.5,29.5,21.1c5.4,8.9,4.6,18.8,4.6,18.8c-0.2,5.2-2.1,13.8-7.9,20.6
		c-2.5,2.9-3.5,4.1-9.9,9.1"/>
	<path class="st0" d="M473.2,253.2"/>
</g>
<path class="st0" d="M56.4,275.5c12.2,0.8,20.9,3.5,20.9,6.7c0,3.9-13,7-29,7s-29-3.1-29-7c0-3.2,9.1-6,21.4-6.8"/>
<path class="st0" d="M77.3,282.2v3.8c0,3.9-13,7-29,7s-29-3.1-29-7v-3.3"/>
<path class="st0" d="M50,293v33.7c0,0,0.1,8.7,6.1,11.3"/>
<path class="st0" d="M46.8,293.2v33.5c0,0-0.1,8.6-6.1,11.3"/>
<path class="st0" d="M52.4,334.2c0.8,0.1,1.6,0.2,2.4,0.3c4.8,0.7,8.1,2,8.1,3.5c0,2.2-6.7,4-14.9,4s-14.9-1.8-14.9-4
	c0-1.9,5-3.5,11.6-3.9"/>
<path class="st0" d="M45.9,248.2"/>
<path class="st0" d="M45.8,248.5c0,0,2.4,11.6-1.7,16.2c-4.2,4.6-8.5,4.5-5.7,8.3c1.9,2.5,4.4,3.5,4.4,4.6s-0.2,1.5,0.7,2.2
	c0,0,0.7,0.5,2.7,0.7c1.3,0.1,6.8,0,7.6-0.7c0.9-0.7,0.7-1.1,0.7-2.2s2.5-2.1,4.4-4.6c2.8-3.8-1.9-3.7-6-8.3
	c-4.2-4.6-1.4-16.2-1.4-16.2"/>
<g>
	<path class="st0" d="M60.8,258.3c0,0.9-0.8,1.7-1.7,1.7c-0.9,0-1.7-0.8-1.7-1.7s0.8-1.7,1.7-1.7C60,256.6,60.8,257.4,60.8,258.3z"
		/>
	<line class="st0" x1="59.1" y1="247.5" x2="59.1" y2="256.1"/>
</g>
<path class="st0" d="M62.7,210.1l4.2,35.5c-19.7,6.2-37.8,0.4-37.8,0.4l4.8-35.9C33.9,210.1,47.4,210.3,62.7,210.1z"/>
<g>
	<g>
		<path class="st0" d="M115.5,260.5c0,0-7-23-9.2-43.2c0,0-1.9-7.2,4.5-7.5c4.3,0.9,8.9,5.3,9.4,10.2c0.6,5.5,4.3,36.2,4.3,36.2
			s0.3,4.9-1.7,6.2"/>
		<path class="st0" d="M116.3,212.9c0,0,50.8,12.1,103.5-1.7"/>
		<path class="st0" d="M219.3,260.5c0,0,7-23,9.2-43.2c0,0,1.4-7.6-4.5-7.5c-5,0.1-8.9,5.3-9.4,10.2c-0.6,5.5-4.3,36.2-4.3,36.2
			s-0.4,4.4,1.5,5.9"/>
		<path class="st0" d="M199.3,281.3c0.2-16.1,3.5-16.7,7-17.7s5.3-1.2,13-3.2c6.2-1.5,13.4-1.5,14.9,5.3s-1.3,14.5-3,24.9
			s-8.7,37.3-10.9,43.4c-1.1,2.3-2.1,2.3-7,2.3h-6.9c-11.5,0-80.1,0-85,0s-6,0-7-2.3c-2.1-6.2-9.2-33-10.9-43.4
			c-1.7-10.4-4.5-18.1-3-24.9c1.5-6.8,8.7-6.8,14.9-5.3c10.1,2.4,11.7,3.4,13.9,6c2.2,2.6,4,8.2,3.1,16.2"/>
		<path class="st0" d="M211.8,307.5c6,0.3,5.8,10.9,4,16.4c-1.7,5.5-6.2,5.5-12.6,5.7c0,0-29.4,0-35.9-0.1c0,0-29.6,0.3-36,0.1
			c-6.4-0.2-10.9-0.2-12.6-5.7c-1.7-5.5-1.9-15.8,4-16.4C122.9,307.5,171.6,305.2,211.8,307.5z"/>
		<path class="st0" d="M205.4,307.2c4.9-0.6,8-1.2,8.6-5.8c0.5-3.8,1.7-8.7-0.4-10.9c-2.1-2.1-10.4-7-10.4-7c-7.1-5.4-46.8-4-46.8-4
			s-18.6,0.6-24.7,4c0,0-8.3,4.9-10.4,7s-0.9,7.1-0.4,10.9c0.6,4.7,2.7,5.2,7.6,5.9"/>
		<path class="st0" d="M214.7,293.4c-0.5-3.5-8.9-4.2-23.3-4.6c0,0-41.5-0.2-53.5,0.2c-9.2,0.3-16.5,0.7-17.9,5.1"/>
		<path class="st0" d="M128.3,336.7"/>
		<path class="st0" d="M127.6,336.7l-0.9,1.7c0,0-0.7,2.3-1.5,2.4c-1.1,0-1-1.1-1.6-4.4"/>
		<path class="st0" d="M208.6,336.7l0.9,1.7c0,0,0.7,2.3,1.5,2.4c1.1,0,1-1.1,1.6-4.4"/>
	</g>
</g>
<path class="st0" d="M365.1,155.4v43.8c-0.8-0.1-1.7-0.2-2.4-0.2c-2.7,0-5.7,1.2-8.2,3.3c-2.8,2.2-4.4,5.1-4.4,7.8
	c0,2,0.9,3.9,2.4,5.1c1.4,1.1,3.3,1.8,5.3,1.8c2.9,0,6.1-1.2,8.6-3.1c2.9-2.2,4.5-5.1,4.5-8v-31.3l28.5-5.6v23.4
	c-0.8-0.1-1.6-0.2-2.4-0.2c-2.7,0-5.7,1.2-8.2,3.3c-2.8,2.2-4.4,5.1-4.4,7.8c0,2,0.9,3.9,2.4,5.1c1.4,1.1,3.3,1.8,5.3,1.8
	c2.9,0,6.1-1.2,8.6-3.1c2.9-2.2,4.5-5.1,4.5-8v-51.7L365.1,155.4z M399.4,161.4l-28.5,5.6v-5.2l28.5-5.6V161.4z"/>
<g>
	<g>
		<path class="st0" d="M312.1,81.3L312.1,81.3l-28.9,6v37c-0.6-0.1-1.1-0.1-1.6-0.1c-2.3,0-5,1.1-7.2,2.8c-2.5,2-3.9,4.5-3.9,6.9
			c0,1.8,0.8,3.5,2.2,4.6c1.2,1,2.9,1.6,4.7,1.6c2.5,0,5.3-1,7.5-2.7c2.5-1.9,4-4.5,4-7.1v-37l22.2-4.7v29.8
			c-0.6-0.1-1.1-0.1-1.6-0.1c-2.3,0-5,1.1-7.2,2.8c-2.5,1.9-3.9,4.5-3.9,6.9c0,1.8,0.8,3.5,2.2,4.6c1.2,1,2.9,1.6,4.7,1.6
			c2.5,0,5.3-1,7.5-2.7c2.6-2,4-4.5,4-7.1V87.3l22.1-4.5v29.6c-0.6-0.1-1.1-0.1-1.6-0.1c-2.3,0-5,1.1-7.2,2.8
			c-2.5,2-3.9,4.5-3.9,6.9c0,1.8,0.8,3.5,2.2,4.6c1.2,1,2.9,1.6,4.7,1.6c2.5,0,5.3-1,7.5-2.7c2.6-2,4-4.6,4-7.1v-44L312.1,81.3z"/>
	</g>
</g>
<g>
	<g>
		<path class="st0" d="M99.8,106.4c2.4-2.8,6-4.5,10-4.5c7.3,0,13.3,5.9,13.3,13.3c0,2.7-0.8,5.3-2.2,7.4l-21,22.3l-21-22.3
			c-1.4-2.1-2.2-4.6-2.2-7.4c0-7.3,5.9-13.3,13.3-13.3C93.8,101.9,97.3,103.6,99.8,106.4z"/>
		<path class="st0" d="M53.3,77.4c1.2-1.3,2.9-2.2,4.8-2.2c3.6,0,6.4,2.9,6.4,6.4c0,1.3-0.4,2.6-1.1,3.6L53.3,96.1L43.1,85.2
			c-0.7-1-1.1-2.3-1.1-3.6c0-3.6,2.9-6.4,6.4-6.4C50.4,75.2,52.1,76.1,53.3,77.4z"/>
	</g>
</g>
</svg>
