<?xml version="1.0" encoding="utf-8"?>
<!-- Generator: Adobe Illustrator 19.1.1, SVG Export Plug-In . SVG Version: 6.00 Build 0)  -->
<svg version="1.1" id="Layer_1" xmlns="http://www.w3.org/2000/svg" xmlns:xlink="http://www.w3.org/1999/xlink" x="0px" y="0px"
	 width="555px" height="321px" viewBox="-297.5 421.4 555 321" style="enable-background:new -297.5 421.4 555 321;"
	 xml:space="preserve">
<style type="text/css">
	.st0{fill:none;stroke:#FFFFFF;stroke-width:2;stroke-linecap:round;stroke-linejoin:round;stroke-miterlimit:10;}
</style>
<path class="st0" d="M102.7,654.5c0.1-8.3,6.5-15.4,12.9-21.6c19.2-18.7,50-18.3,68.7,1c6,6.2,10.7,14,12.1,21.3
	C196.4,655.2,102.7,654.6,102.7,654.5z"/>
<line class="st0" x1="150.6" y1="655.1" x2="150.6" y2="703.9"/>
<path class="st0" d="M150.6,619.2c0,0-23.2,6.7-23.6,34.9"/>
<path class="st0" d="M171.8,654.6c0,0-0.8-26.8-22.1-35.2"/>
<line class="st0" x1="150.6" y1="710.6" x2="150.6" y2="725.9"/>
<path class="st0" d="M220.6,674.7c-1.3-1.3-3.4-1.3-4.6,0l-0.5,0.5L186.7,704h-77.7c0,0,0,0.1,0,0.2l-0.1-0.1l-14.3,14.3
	c-1.3,1.3-1.3,3.4,0,4.6c1.3,1.3,3.4,1.3,4.6,0l0.5-0.5l12-12h77.5h0.2l31.2-31.2C221.8,678,221.8,676,220.6,674.7z"/>
<ellipse class="st0" cx="186.2" cy="717.8" rx="7" ry="7.1"/>
<line class="st0" x1="149.8" y1="615.3" x2="149.8" y2="618.4"/>
<circle class="st0" cx="227.8" cy="632.2" r="8.8"/>
<line class="st0" x1="227.8" y1="618.6" x2="227.8" y2="610.6"/>
<line class="st0" x1="227.8" y1="645.7" x2="227.8" y2="653.7"/>
<line class="st0" x1="215.8" y1="619.1" x2="213.7" y2="616.9"/>
<line class="st0" x1="239.9" y1="644.8" x2="242.2" y2="647.2"/>
<line class="st0" x1="240.8" y1="619.9" x2="243.2" y2="617.8"/>
<line class="st0" x1="215.2" y1="644.1" x2="212.8" y2="646.4"/>
<line class="st0" x1="241.3" y1="632.2" x2="249.3" y2="632.2"/>
<line class="st0" x1="214.3" y1="632.2" x2="206.3" y2="632.2"/>
<rect x="-216.9" y="470.8" class="st0" width="71.7" height="55.2"/>
<rect x="-213.9" y="474.4" class="st0" width="65.7" height="48.6"/>
<circle class="st0" cx="-142.4" cy="468.4" r="1.7"/>
<circle class="st0" cx="-219.8" cy="468.4" r="1.7"/>
<circle class="st0" cx="-142.4" cy="528.1" r="1.7"/>
<circle class="st0" cx="-219.8" cy="528.1" r="1.7"/>
<path class="st0" d="M-138.9,469.6L-138.9,469.6C-138.9,469.6-138.9,469.5-138.9,469.6C-138.9,469.5-138.9,469.5-138.9,469.6
	L-138.9,469.6z"/>
<path class="st0" d="M-140.1,523.7c-0.3-2.2,1.1-8.8,1.1-8.8c1.7-8.7,0.9-10.6,0-13c0,0-1.5-3.4,0-6.5c1.1-2.3,1.9-5.3,0-13
	c-1.2-4.8-1.3-7.9-1-9.7c0.2,0.1,0.5,0.2,0.8,0.2c0.9,0,1.7-0.7,1.7-1.7c0-0.8-0.6-1.7-1.4-1.8l0,0h-0.1c0.1-0.1,0.2-0.1,0.2-0.1
	c1.1-0.5,1.9-1.8,1.9-3.1c0-1.8-1.5-3.3-3.3-3.3c-1.2,0-2.3,0.7-2.8,1.7c0-0.9-0.9-1.8-2-1.7c-0.9,0.1-1.9,0.8-1.7,2.1
	c0,0-4.7,4.9-16.4-0.3c-6-2.7-10.3-2.2-13.1-1.8c-0.7-2.1-2.7-3.7-5.1-3.7c-2.4,0-4.3,1.5-5.1,3.6c-2.8-0.4-7-0.8-12.9,1.8
	c-11.7,5.2-16.4,0.3-16.4,0.3c0.2-1.2-0.8-2-1.7-2.1c-1.1-0.1-2,0.8-2,1.7c-0.6-1-1.6-1.7-2.8-1.7c-1.8,0-3.3,1.5-3.3,3.3
	c0,1.3,0.8,2.6,1.9,3.1c0,0,0.1,0,0.2,0.1h-0.1l0,0c-0.8,0.1-1.4,1-1.4,1.8c0,0.9,0.7,1.7,1.7,1.7c0.3,0,0.6-0.1,0.8-0.2
	c0.2,1.8,0.1,4.9-1,9.7c-1.9,7.6-1.1,10.7,0,13c1.5,3.1,0,6.5,0,6.5c-0.9,2.3-1.7,4.3,0,13c0,0,1.4,6.6,1.1,8.8"/>
<path class="st0" d="M-223.4,469.5c0,0-0.1,0-0.1-0.1C-223.6,469.5-223.6,469.5-223.4,469.5C-223.6,469.6-223.6,469.6-223.4,469.5
	C-223.4,469.6-223.4,469.6-223.4,469.5z"/>
<path class="st0" d="M-139.1,527c0,0,0.1,0,0.1,0.1C-138.9,527-138.9,527-139.1,527L-139.1,527L-139.1,527z"/>
<path class="st0" d="M-222.4,523.7c-0.2-0.1-0.5-0.2-0.8-0.2c-0.9,0-1.7,0.7-1.7,1.7c0,0.8,0.6,1.7,1.4,1.8l0,0h0.1
	c0,0.1-0.1,0.1-0.1,0.1c-1.1,0.5-1.9,1.8-1.9,3.1c0,1.8,1.5,3.3,3.3,3.3c1.2,0,2.3-0.7,2.8-1.7c0,0.9,0.9,1.8,2,1.7
	c0.9-0.1,1.9-0.8,1.7-2.1c0,0,4.7-5.2,16.4,0c5.9,2.6,10,0.9,12.9,0.5c0.7,2.1,2.7,3.6,5,3.6c2.3,0,4.3-1.5,5.1-3.6
	c2.8,0.4,6.5,2.1,12.5-0.6c11.7-5.2,16.9,0.1,16.9,0.1c-0.2,1.2,0.8,2,1.7,2.1c1.1,0.1,2-0.8,2-1.7c0.6,1,1.6,1.7,2.8,1.7
	c1.8,0,3.3-1.5,3.3-3.3c0-1.3-0.8-2.6-1.9-3.1c0,0-0.1,0-0.2-0.1h0.1l0,0c0.8-0.1,1.4-1,1.4-1.8c0-0.9-0.7-1.7-1.7-1.7
	c-0.3,0-0.6,0.1-0.8,0.2"/>
<path class="st0" d="M-223.4,527L-223.4,527c-0.1,0-0.2,0.1-0.1,0.1C-223.6,527-223.4,527-223.4,527L-223.4,527z"/>
<path class="st0" d="M-160.9,502.6v-6.8l0,0c-0.1-5.7-4.3-10.2-9.4-10.2c-5.2,0-9.3,4.6-9.4,10.2l0,0l0,0v0.1v0.1v6.6"/>
<path class="st0" d="M-199.4,493.7c-3.2,2.1-5.4,5.7-5.4,9.8l0,0l0,0v0.1v0.1v19.4"/>
<path class="st0" d="M-180.3,504.7v-1.2c-0.1-4.1-2.2-7.6-5.4-9.8"/>
<path class="st0" d="M-157.8,523v-12.1l0,0c-0.1-4.8-3-8.9-7.2-10.7"/>
<ellipse class="st0" cx="-192.6" cy="488.8" rx="8.5" ry="8.3"/>
<path class="st0" d="M-163.3,495c0,4.1-3.1,7.5-7,7.5c-3.8,0-7-3.3-7-7.5c0-4.1,3.1-7.5,7-7.5C-166.4,487.6-163.3,490.9-163.3,495z"
	/>
<path class="st0" d="M-188.6,513.9c-1.7,1-2.8,2.8-2.8,4.9l0,0l0,0c0,0,0,0,0,0.1c0,0,0,0,0,0.1v4.1"/>
<path class="st0" d="M-179.4,523v-4.2l0,0c0-1.9-1-3.6-2.4-4.6"/>
<ellipse class="st0" cx="-185.4" cy="510.4" rx="4.9" ry="4.8"/>
<path class="st0" d="M-167.4,523v-4.2l0,0c0-1.9-1-3.7-2.5-4.7"/>
<path class="st0" d="M-176.6,514c-1.6,1-2.6,2.8-2.7,4.8l0,0l0,0c0,0,0,0,0,0.1c0,0,0,0,0,0.1v3.7"/>
<ellipse class="st0" cx="-173.6" cy="510.4" rx="4.9" ry="4.8"/>
<path class="st0" d="M-172.9,497.5c0,0,2.7,3.4,5.4,0"/>
<path class="st0" d="M-195.1,492.5c0,0,2.9,3.5,5.4,0"/>
<path class="st0" d="M-200.4,489.7l2,0.1c0,0,0.1-6.3,3.1-5.3c1.7,0.5,2.9,0.7,5.2,0c2-0.6,3.8,0.7,3.8,5.1l1.6-0.1"/>
<line class="st0" x1="-173.6" y1="506.1" x2="-173.6" y2="508.5"/>
<line class="st0" x1="-171.6" y1="506.1" x2="-171.6" y2="508.5"/>
<line class="st0" x1="-175.8" y1="506.1" x2="-175.8" y2="508.5"/>
<line class="st0" x1="-185.3" y1="506.1" x2="-185.3" y2="508.5"/>
<line class="st0" x1="-183.3" y1="506.1" x2="-183.3" y2="508.5"/>
<line class="st0" x1="-187.4" y1="506.1" x2="-187.4" y2="508.5"/>
<path class="st0" d="M-175.4,500.4c-2.9,1.4-5.1,3.9-6.1,6.9"/>
<path class="st0" d="M-0.4,553.2c-1.9,2.3-3.1,5.2-3.1,8.5c0,7.3,5.9,13.2,13.2,13.2c3.1,0,6-1.1,8.2-2.9c1.7,5.6,6.8,9.6,12.9,9.6
	c5.1,0,9.6-2.9,11.9-7.1c2.6,3.5,6.7,5.9,11.4,5.9c7.8,0,14.1-6.3,14.1-14.1c0-2.8-0.8-5.3-2.2-7.5c1.4-1.7,2.2-3.9,2.2-6.3
	c0-5.6-4.5-10.1-10.1-10.1c-1.7,0-3.2,0.4-4.6,1.1c-2.1-5.7-6.8-10.1-12.6-11.9"/>
<path class="st0" d="M10.2,548.5c-0.2,0-0.4,0-0.6,0c-4.1,0-7.7,1.8-10.1,4.7"/>
<path class="st0" d="M18.6,539.8c-1.9,2.9-3,6.4-3.1,10.1c-1.6-0.8-3.4-1.3-5.2-1.4"/>
<path class="st0" d="M27.6,532.3c-3.7,1.5-6.8,4.2-9,7.5"/>
<path class="st0" d="M40.8,531.6c-1.8-0.6-3.8-0.9-5.8-0.9c-2.7,0-5.2,0.5-7.5,1.5"/>
<path class="st0" d="M-65.3,560.7c0-28.2,22.8-51,51-51c17.3,0,32.6,8.6,41.8,21.8"/>
<path class="st0" d="M40.8,530.9C30.2,511.3,9.6,498-14.3,498c-34.6,0-62.6,28-62.6,62.6"/>
<path class="st0" d="M-42,560.7c0-15.3,12.4-27.7,27.7-27.7c10.7,0,19.9,6,24.5,14.8"/>
<path class="st0" d="M18.6,539.1c-7-10.7-19.1-17.7-32.9-17.7c-21.7,0-39.4,17.6-39.4,39.4"/>
<path class="st0" d="M-0.4,552.5c-2.8-4.7-7.9-7.9-13.8-7.9c-8.9,0-16.1,7.2-16.1,16.1"/>
<polygon class="st0" points="-130.6,715.1 -135.4,693.3 -107.4,693.3 -112.3,715.1 "/>
<path class="st0" d="M-137.4,692.5l-0.6-3.1c0,0-0.3-1.3,1.1-1.3c1.5,0,29.5,0,30.9,0c1.6,0,1.3,1.3,1.3,1.3l-0.7,3.2
	c0,0,0,0.7-1,0.7c-0.8,0-29.3,0-30.1,0C-137.3,693.3-137.4,692.5-137.4,692.5z"/>
<path class="st0" d="M-123.4,665.5c0,0,5.1,14.5,3.2,22.2"/>
<path class="st0" d="M-129.1,658.8c-16.9-7.1-17.9,7.9-0.2,3c-0.2-0.5-0.2-1-0.2-1.5S-129.4,659.3-129.1,658.8z"/>
<path class="st0" d="M-129.4,662c-17,7-7,18.2,2,2.3C-128.3,663.7-128.9,662.9-129.4,662z"/>
<path class="st0" d="M-123.8,656.8c7.1-16.9-7.9-17.9-3-0.2c0.5-0.2,1-0.2,1.5-0.2S-124.1,656.6-123.8,656.8z"/>
<path class="st0" d="M-127.1,664.3c-7.1,16.9,7.9,17.9,3,0.2c-0.5,0.2-1,0.2-1.5,0.2C-126.3,664.6-126.8,664.5-127.1,664.3z"/>
<path class="st0" d="M-121.7,659.2c17-7,7-18.2-2-2.3C-122.6,657.4-121.9,658.2-121.7,659.2z"/>
<path class="st0" d="M-126.9,656.7c-7-17-18.2-7-2.3,2C-128.6,657.8-127.9,657.1-126.9,656.7z"/>
<path class="st0" d="M-121.6,659.3c0.2,0.5,0.2,1,0.2,1.5s-0.2,1-0.4,1.5C-104.8,669.4-103.9,654.4-121.6,659.3z"/>
<path class="st0" d="M-124.1,664.4c7,17,18.2,7,2.3-2C-122.3,663.4-123.1,664.1-124.1,664.4z"/>
<path class="st0" d="M-114.4,679.8c0,0,12.6,3.2,17.4-10.1C-97.1,669.7-108.3,666.3-114.4,679.8z"/>
<path class="st0" d="M-106.2,674.6c0,0-9.6,2.8-13.6,13.4"/>
<path class="st0" d="M185.6,482.4c2.4-2.8,6-4.5,10-4.5c7.3,0,13.3,5.9,13.3,13.3c0,2.7-0.8,5.3-2.2,7.4l-21,22.3l-21-22.3
	c-1.4-2.1-2.2-4.6-2.2-7.4c0-7.3,5.9-13.3,13.3-13.3C179.6,477.8,183.1,479.6,185.6,482.4z"/>
<path class="st0" d="M139.1,453.4c1.2-1.3,2.9-2.2,4.8-2.2c3.6,0,6.4,2.9,6.4,6.4c0,1.3-0.4,2.6-1.1,3.6L139,472.1l-10.2-10.8
	c-0.7-1-1.1-2.3-1.1-3.6c0-3.6,2.9-6.4,6.4-6.4C136.2,451.2,137.8,452.1,139.1,453.4z"/>
</svg>
