<?xml version="1.0" encoding="utf-8"?>
<!-- Generator: Adobe Illustrator 19.1.1, SVG Export Plug-In . SVG Version: 6.00 Build 0)  -->
<svg version="1.1" id="Layer_1" xmlns="http://www.w3.org/2000/svg" xmlns:xlink="http://www.w3.org/1999/xlink" x="0px" y="0px"
	 width="480.2px" height="248px" viewBox="-297.1 420.9 480.2 248" style="enable-background:new -297.1 420.9 480.2 248;"
	 xml:space="preserve">
<style type="text/css">
	.st0{fill:none;stroke:#FFFFFF;stroke-width:2;stroke-linecap:round;stroke-linejoin:round;stroke-miterlimit:10;}
</style>
<circle class="st0" cx="-66.8" cy="560.6" r="27.1"/>
<g>
	<polyline class="st0" points="-85.1,594.9 -109.1,649.8 -93.3,645.5 -85.3,659.8 -57.5,594.5 	"/>
</g>
<g>
	<polyline class="st0" points="-50.4,594.5 -26.2,649.8 -42,645.5 -50,659.8 -67.3,617.5 	"/>
</g>
<g>
	<path class="st0" d="M-71.2,525c2.3-2.2,6.2-2.2,8.5,0c2.3,2.2,6.8,3.4,10,2.7s6.5,1.2,7.4,4.3s4.2,6.4,7.3,7.3s5,4.2,4.3,7.4
		c-0.8,3.1,0.4,7.6,2.7,10c2.2,2.3,2.2,6.2,0,8.5c-2.2,2.3-3.4,6.8-2.7,10c0.8,3.1-1.2,6.5-4.3,7.4c-3.1,0.9-6.4,4.2-7.3,7.3
		c-0.9,3.1-4.2,5-7.4,4.3c-3.2-0.7-7.6,0.4-10,2.7c-2.3,2.2-6.2,2.2-8.5,0c-2.3-2.2-6.8-3.4-10-2.7c-3.2,0.7-6.5-1.2-7.4-4.3
		c-0.9-3.1-4.2-6.4-7.3-7.3c-3.1-0.9-5-4.2-4.3-7.4c0.8-3.1-0.4-7.6-2.7-10c-2.3-2.4-2.2-6.2,0-8.5c2.2-2.3,3.4-6.8,2.7-10
		c-0.8-3.1,1.2-6.5,4.3-7.4c3.1-0.9,6.4-4.2,7.3-7.3c0.9-3.1,4.2-5,7.4-4.3C-78,528.4-73.6,527.2-71.2,525z"/>
</g>
<g>
	<g>
		<path class="st0" d="M-132.4,464.6c2.4-2.8,6-4.5,10-4.5c7.3,0,13.3,5.9,13.3,13.3c0,2.7-0.8,5.3-2.2,7.4l-21,22.3l-21-22.3
			c-1.4-2.1-2.2-4.6-2.2-7.4c0-7.3,5.9-13.3,13.3-13.3C-138.4,460.1-134.8,461.8-132.4,464.6z"/>
		<path class="st0" d="M-178.9,435.6c1.2-1.3,2.9-2.2,4.8-2.2c3.6,0,6.4,2.9,6.4,6.4c0,1.3-0.4,2.6-1.1,3.6l-10.2,10.8l-10.1-10.8
			c-0.7-1-1.1-2.3-1.1-3.6c0-3.6,2.9-6.4,6.4-6.4C-181.8,433.4-180,434.3-178.9,435.6z"/>
	</g>
</g>
<g>
	<g>
		<path class="st0" d="M22.3,456.7L22.3,456.7l-28.9,6v36.9c-0.6-0.1-1.1-0.1-1.6-0.1c-2.3,0-5,1.1-7.2,2.8c-2.5,2-3.9,4.5-3.9,6.9
			c0,1.8,0.8,3.5,2.2,4.6c1.2,1,2.9,1.6,4.7,1.6c2.5,0,5.3-1,7.5-2.7c2.5-1.9,4-4.5,4-7.1v-37l22.2-4.7v29.8
			c-0.6-0.1-1.1-0.1-1.6-0.1c-2.3,0-5,1.1-7.2,2.8c-2.5,1.9-3.9,4.5-3.9,6.9c0,1.8,0.8,3.5,2.2,4.6c1.2,1,2.9,1.6,4.7,1.6
			c2.5,0,5.3-1,7.5-2.7c2.6-2,4-4.5,4-7.1v-36.8l22.1-4.5V488c-0.6-0.1-1.1-0.1-1.6-0.1c-2.3,0-5,1.1-7.2,2.8
			c-2.5,2-3.9,4.5-3.9,6.9c0,1.8,0.8,3.5,2.2,4.6c1.2,1,2.9,1.6,4.7,1.6c2.5,0,5.3-1,7.5-2.7c2.6-2,4-4.6,4-7.1v-44L22.3,456.7z"/>
	</g>
</g>
<g>
	<g>
		<path class="st0" d="M-185.9,632.6c0,1-0.8,1.9-1.9,1.9H-250c-1,0-1.9-0.8-1.9-1.9l0,0c0-1,0.8-1.9,1.9-1.9h62.2
			C-186.8,630.7-185.9,631.5-185.9,632.6L-185.9,632.6z"/>
		<ellipse class="st0" cx="-239.9" cy="616.2" rx="8.4" ry="1.7"/>
		<line class="st0" x1="-248.3" y1="615.9" x2="-248.3" y2="625.3"/>
		<line class="st0" x1="-245.6" y1="618" x2="-245.6" y2="625.3"/>
		<line class="st0" x1="-242.1" y1="618.4" x2="-242.1" y2="625.3"/>
		<line class="st0" x1="-238.6" y1="618.4" x2="-238.6" y2="625.3"/>
		<line class="st0" x1="-235.1" y1="618" x2="-235.1" y2="625.3"/>
		<line class="st0" x1="-231.4" y1="615.8" x2="-231.4" y2="618"/>
		<rect x="-248.9" y="634.8" class="st0" width="60" height="29.2"/>
		<circle class="st0" cx="-218.6" cy="649.4" r="11.2"/>
		<circle class="st0" cx="-218.6" cy="649.4" r="8.1"/>
		<rect x="-224.2" y="614.3" class="st0" width="10.7" height="10.6"/>
		<rect x="-220.9" y="617.6" class="st0" width="4" height="4"/>
		<path class="st0" d="M-194.1,602.4c8.5-0.7,10.4-4,11-7.9c0.5-4,0.4-15.7,0-19.4c-0.4-3.8-0.8-7.6-8.5-8.8
			c-7-1.1-12.2-1.1-19.1,0.4c-5.9,1.3-7.4,6.1-7.7,9.9c-0.4,3.8-0.2,14,0.3,18s2.5,6.8,10.1,7.9L-194.1,602.4L-194.1,602.4z"/>
		<path class="st0" d="M-192.7,606.4c10.3-0.9,12.7-4.8,13.3-9.6c0.7-4.8,0.4-19,0-23.6c-0.4-4.6-1-9.3-10.3-10.7
			c-8.5-1.3-14.8-1.3-23.1,0.4c-7.2,1.5-8.9,7.4-9.4,12c-0.4,4.6-0.2,17,0.4,21.8c0.7,4.8,3.1,8.3,12.2,9.6L-192.7,606.4z"/>
		<polyline class="st0" points="-212.7,617.9 -188.9,617.9 -188.9,630.7 -248.9,630.7 -248.9,625.4 -231.5,625.4 -231.5,617.9 
			-224.3,617.9 		"/>
		<line class="st0" x1="-186.9" y1="605.3" x2="-192.6" y2="618.1"/>
		<line class="st0" x1="-213.6" y1="605.3" x2="-207.9" y2="618.1"/>
		<line class="st0" x1="-211.4" y1="574.1" x2="-190.9" y2="594.5"/>
		<line class="st0" x1="-190.9" y1="574.1" x2="-211.4" y2="594.5"/>
	</g>
</g>
<g>
	<rect x="87.2" y="594.5" class="st0" width="60.3" height="16.7"/>
	<path class="st0" d="M136.5,585.9c0.1-1.3-0.6-2.5-1.4-2.5H87.7c-0.8,0-1.4,1.4-1.4,2.5l0,0H136.5z"/>
	<path class="st0" d="M153.5,616.9L153.5,616.9c0-2.4-1.7-5.7-6.4-5.7h-26h-8h-26c-4.7,0-6.4,3.3-6.4,5.7l0,0H153.5z"/>
	<path class="st0" d="M80.8,588.8L80.8,588.8c0,2.4,1.7,5.7,6.4,5.7h26h8h26c4.7,0,6.4-3.3,6.4-5.7l0,0H80.8z"/>
	<path class="st0" d="M164.5,588.8h-4.3c-2.7,0-5,2.2-5,5v1.5c0,2.7-2.2,5-5,5h-2.9"/>
	<path class="st0" d="M139.9,599.9"/>
	<path class="st0" d="M139.5,588.8v-1.2c0-2.5,2.5-4.5,5.6-4.5h2.6c3.1,0,5.6,2,5.6,4.5v1.2"/>
	<circle class="st0" cx="167.4" cy="588.8" r="2.9"/>
	<path class="st0" d="M150.1,572.9"/>
	<path class="st0" d="M143.1,583.4c20.2-6.6,16.7-24.9,16.7-24.9c-1-10.8-12-22.4-23.1-23.3c-28.4-3.2-41.7,23.4-44.4,40.7V470.8
		c2.1,5.4,2.5,28.9,44.4,44.1c16.1,4.9,25.5,14.5,29.5,21.1c5.4,8.9,4.6,18.8,4.6,18.8c-0.2,5.2-2.1,13.8-7.9,20.6
		c-2.5,2.9-3.5,4.1-9.9,9.1"/>
	<path class="st0" d="M122,522.6"/>
</g>
</svg>
