<?xml version="1.0" encoding="utf-8"?>
<svg version="1.1" xmlns="http://www.w3.org/2000/svg" xmlns:xlink="http://www.w3.org/1999/xlink" x="0px" y="0px"
     width="@width" height="@height" viewBox="0 0 68.5 68.3" style="enable-background:new 0 0 68.5 68.3;" xml:space="preserve">
<style type="text/css">
	.st0{fill:none;stroke:#FFFFFF;stroke-width:2;stroke-linecap:round;stroke-linejoin:round;stroke-miterlimit:10;}
	
		.st1{fill-rule:evenodd;clip-rule:evenodd;fill:none;stroke:#FFFFFF;stroke-width:2;stroke-linecap:round;stroke-linejoin:round;stroke-miterlimit:10;}
	.st2{fill:#5A5654;}
</style>
<g id="Layer_1">
<g>
<g>
<path class="st0" d="M53.8,31.4C53.8,45,42.8,56,29.2,56C15.6,56,4.6,45,4.6,31.4v-5.8h55.3" />
<line class="st0" x1="3.4" y1="57.1" x2="57.7" y2="57.1" />
<line class="st0" x1="18.8" y1="64.8" x2="42.5" y2="64.8" />
<path class="st0" d="M66,31.7c0-3.4-2.7-6.1-6.1-6.1c-1.6,0-3.1,0.6-4.2,1.7c-1.2,1.1-1.9,2.7-1.9,4.4c0,3.4,2.7,6.1,6.1,6.1
				C63.3,37.8,66,35.1,66,31.7z" />
<path class="st0" d="M42.5,17.7C42.5,9,35.4,2,26.5,2" />
<path class="st0" d="M11,2.4c0,4.1,3.3,7.4,7.4,7.4h4.8c4.1,0,7.4,3.3,7.4,7.4" />
<line class="st0" x1="53.8" y1="31.2" x2="53.8" y2="25.6" />
		</g>
	</g>
</g>
<g id="Layer_2">
</g>
<g id="Layer_3">
</g>
</svg>