<?xml version="1.0" encoding="utf-8"?>
<!-- Generator: Adobe Illustrator 19.1.1, SVG Export Plug-In . SVG Version: 6.00 Build 0)  -->
<svg version="1.1" id="Layer_1" xmlns="http://www.w3.org/2000/svg" xmlns:xlink="http://www.w3.org/1999/xlink" x="0px" y="0px"
	 width="400px" height="239px" viewBox="-256 226 400 239" style="enable-background:new -256 226 400 239;" xml:space="preserve">
<style type="text/css">
	.st0{fill:none;stroke:#FFFFFF;stroke-width:2;stroke-linecap:round;stroke-linejoin:round;stroke-miterlimit:10;}
</style>
<g>
	<path class="st0" d="M-48.5,383.7l5.1-5.1c2.6-2.6,7.3-3,9.9-0.4l5.4,5.4c2.6,2.6,2.2,7.3-0.4,9.9l-5.1,5.1"/>
	<line class="st0" x1="-53.3" y1="388.5" x2="-38.4" y2="403.4"/>
	<line class="st0" x1="-44.1" y1="399" x2="-83.6" y2="438.5"/>
	<line class="st0" x1="-49.1" y1="394.1" x2="-83.6" y2="428.7"/>
	<polygon class="st0" points="-74.1,439.1 -83.6,438.5 -83.6,428.7 -93.5,428.7 -48.5,383.7 -33.6,398.6 	"/>
	<path class="st0" d="M-93.6,429.4l-3,9.7c0,0-3.9,10.8,7.8,7.8l9.8-2.9l4.9-4.9"/>
	<line class="st0" x1="-95.6" y1="437.1" x2="-87" y2="445.7"/>
</g>
<line class="st0" x1="8" y1="328" x2="43.8" y2="328"/>
<line class="st0" x1="8" y1="340.1" x2="43.8" y2="340.1"/>
<line class="st0" x1="-8.8" y1="377.2" x2="9.2" y2="351.4"/>
<line class="st0" x1="60.8" y1="377.2" x2="43.4" y2="351.4"/>
<path class="st0" d="M60.6,334.5l-17.2,16.9H8.6C5,348.7-8.8,334.5-8.8,334.5"/>
<polyline class="st0" points="-0.2,342.9 -0.2,316.4 52.1,316.4 52.1,342.9 "/>
<polyline class="st0" points="13.2,316.4 25.9,306 38.8,316.6 "/>
<polyline class="st0" points="52.1,327.5 60.6,334.5 60.6,338.2 60.6,377.2 -8.8,377.2 -8.8,338.5 -8.8,334.5 -0.6,327.7 "/>
<g>
	<line class="st0" x1="111.9" y1="419" x2="84.6" y2="407.2"/>
	<g>
		<path class="st0" d="M84,440.7c0.3-0.7,1-1.1,1.6-1c0.4-3.4,1.2-10.1,1.2-16.1c0.1-9.5-2.2-16.4-2.2-16.4
			c7.4-9.8,14.5-19,17.6-29.4l-2.3-1l2.1-4.9l23.7,10.3l-2.1,4.9l-2.3-1c-5.5,9.4-7.4,20.9-9.5,32.9c0,0-6.6,3-13.5,9.5
			c-4.4,4.2-8.7,9.2-10.9,11.9c0.5,0.5,0.6,1.2,0.4,1.9c-0.4,0.9-1.4,1.3-2.3,0.9l-0.6-0.3C84,442.6,83.6,441.6,84,440.7z"/>
		<line class="st0" x1="100" y1="376.8" x2="123.6" y2="387.1"/>
		<path class="st0" d="M105.6,403.3c0.3,1.9-1,3.6-2.9,3.9c-1.9,0.3-3.6-1-3.9-2.9c-0.3-1.9,1-3.6,2.9-3.9
			C103.6,400.1,105.3,401.4,105.6,403.3z"/>
		<line class="st0" x1="101" y1="407.1" x2="86.7" y2="439.8"/>
	</g>
</g>
<g>
	<g>
		<g>
			<g>
				<polygon class="st0" points="-246.5,281.9 -173.5,254.6 -227.5,288.5 				"/>
			</g>
			<g>
				<polyline class="st0" points="-173.5,254.6 -227.5,288.5 -224.4,309.6 -210.3,294.3 				"/>
			</g>
			<g>
				<line class="st0" x1="-217" y1="292.3" x2="-224.4" y2="309.6"/>
			</g>
			<g>
				<polygon class="st0" points="-173.5,254.6 -217,292.3 -191.8,300.2 				"/>
			</g>
		</g>
	</g>
</g>
</svg>
