<?xml version="1.0" encoding="utf-8"?>
<!-- Generator: Adobe Illustrator 19.1.1, SVG Export Plug-In . SVG Version: 6.00 Build 0)  -->
<svg version="1.1" id="Layer_1" xmlns="http://www.w3.org/2000/svg" xmlns:xlink="http://www.w3.org/1999/xlink" x="0px" y="0px"
	 width="492px" height="260px" viewBox="-14 83 492 260" style="enable-background:new -14 83 492 260;" xml:space="preserve">
<style type="text/css">
	.st0{fill:none;stroke:#FFFFFF;stroke-width:2;stroke-linecap:round;stroke-linejoin:round;stroke-miterlimit:10;}
	.st1{fill:#FFFFFF;stroke:#FFFFFF;stroke-miterlimit:10;}
</style>

<desc>Created with Sketch Beta.</desc>
<path class="st0" d="M48.4,261.7l-3.7,65.9c-1,7.3-7.8,12.4-15.1,11.4l-2.6-0.4c-7.3-1-12.4-7.8-11.4-15.1l14.6-64.4"/>
<path class="st0" d="M104.7,185.4c-4.2,29.8-31.7,50.6-61.5,46.4c-29.8-4.2-50.6-31.7-46.4-61.6c4.2-29.8,31.7-50.6,61.6-46.4
	C88.1,128,108.9,155.6,104.7,185.4z"/>
<path class="st0" d="M91.1,184.6c-3.1,22.4-23.8,38-46.2,34.9c-22.4-3.1-38-23.8-34.9-46.2c3.1-22.4,23.8-38,46.2-34.9
	C78.6,141.5,94.2,162.2,91.1,184.6z"/>
<rect x="33.4" y="231.8" transform="matrix(0.9904 0.1386 -0.1386 0.9904 33.4762 -3.5394)" class="st0" width="17.5" height="13.8"/>
<path class="st0" d="M55.6,254.8c-0.5,3.7-3.9,6.3-7.6,5.8l-17.4-2.4c-3.7-0.5-6.3-3.9-5.8-7.6l0,0c0.5-3.7,3.9-6.3,7.6-5.8
	l17.4,2.4C53.5,247.7,56.1,251.1,55.6,254.8L55.6,254.8z"/>
<rect x="95.4" y="252.9" class="st0" width="23" height="71.2"/>
<rect x="100.4" y="265.1" class="st0" width="12.8" height="31.6"/>
<circle class="st0" cx="106.9" cy="310.1" r="4.3"/>
<rect x="118.4" y="252.9" class="st0" width="23" height="71.2"/>
<rect x="123.3" y="265.1" class="st0" width="12.8" height="31.6"/>
<circle class="st0" cx="129.8" cy="310.1" r="4.3"/>
<g>
	
		<rect x="149.1" y="250.8" transform="matrix(0.9806 -0.1959 0.1959 0.9806 -52.9967 37.0064)" class="st0" width="23" height="71.2"/>
	
		<rect x="152.6" y="263.2" transform="matrix(0.9806 -0.1958 0.1958 0.9806 -51.5594 36.5395)" class="st0" width="12.8" height="31.6"/>
	<circle class="st0" cx="164.8" cy="307.6" r="4.3"/>
</g>
<g>
	<rect x="243.5" y="88.3" class="st0" width="56.5" height="75.5"/>
</g>
<g>
	<rect x="252.9" y="97.6" class="st0" width="37.7" height="14.4"/>
</g>
<g>
	<path class="st1" d="M277.4,131l1.3-0.3v-4.5h-1c-0.4,0-0.7-0.3-0.7-0.7s0.3-0.7,0.7-0.7h1v-2.1c0-1.5,0.4-2.7,1.2-3.5
		c0.7-0.8,1.8-1.2,3.1-1.2c1.9,0,3,0.7,3.9,1.7c0.1,0.2,0.2,0.3,0.2,0.6c0,0.4-0.3,0.8-0.8,0.8c-0.3,0-0.5-0.1-0.6-0.3
		c-0.7-0.8-1.5-1.4-2.8-1.4c-0.8,0-1.4,0.3-1.9,0.7c-0.6,0.6-0.8,1.4-0.8,2.5v2.1h4.9c0.4,0,0.7,0.3,0.7,0.7s-0.3,0.7-0.7,0.7h-4.9
		v4.4h6.4c0.4,0,0.7,0.3,0.7,0.7c0,0.4-0.3,0.7-0.7,0.7h-9.2c-0.3,0-0.5-0.2-0.5-0.5C277,131.3,277.1,131.1,277.4,131z"/>
</g>
<path class="st0" d="M289.4,139.8h-2.6c-0.4,0-0.8,0.4-0.8,0.8v2.1l-2.7-2.3c-0.3-0.3-0.7-0.3-1,0l-6.6,5.7
	c-0.2,0.1-0.3,0.4-0.3,0.6v7.5c0,0.4,0.4,0.8,0.8,0.8h13.2c0.4,0,0.8-0.4,0.8-0.8v-13.5C290.2,140.2,289.8,139.8,289.4,139.8z"/>
<line class="st0" x1="254.5" y1="120.8" x2="264.3" y2="130.6"/>
<line class="st0" x1="264.3" y1="120.8" x2="254.5" y2="130.6"/>
<line class="st0" x1="265.5" y1="144.5" x2="253.8" y2="144.5"/>
<line class="st0" x1="265.5" y1="151.3" x2="253.8" y2="151.3"/>
<g>
	<g>
		<path class="st0" d="M471.1,323.2c0,0,0-4.1,0-9.2s-2.7-9.2-6-9.2c-3.3,0-11.4,0-18,0h-5c-6.6,0-15.1,0-18.9,0s-6.9,4.1-6.9,9.2
			s0,9.2,0,9.2"/>
	</g>
	<line class="st0" x1="416.4" y1="315" x2="471.1" y2="315"/>
	<line class="st0" x1="416.4" y1="323.2" x2="471.1" y2="323.2"/>
	<path class="st0" d="M461.4,304.8c-3.9,0.1-8.9-1.2-11.7-4.4c-2.4-2.8-6.2-10.6,4.5-32.2c1.8-3.7,1.7-6,1.7-6
		c0-6.8-5.5-12.3-12.3-12.3c-6.8,0-12.3,5.5-12.3,12.3c0,0-0.3,2.5,1.1,6c10.7,21.5,6.9,29.4,4.5,32.2c-2.7,3.2-7.8,4.4-11.7,4.4"/>
</g>
<g>
	<path class="st0" d="M377.4,244.9l5.1-5.1c2.6-2.6,7.3-3,9.9-0.4l5.4,5.4c2.6,2.6,2.2,7.3-0.4,9.9l-5.1,5.1"/>
	<line class="st0" x1="372.6" y1="249.8" x2="387.5" y2="264.7"/>
	<line class="st0" x1="381.8" y1="260.3" x2="342.3" y2="299.8"/>
	<line class="st0" x1="376.9" y1="255.4" x2="342.3" y2="289.9"/>
	<polygon class="st0" points="351.8,300.3 342.3,299.8 342.3,289.9 332.4,289.9 377.4,244.9 392.3,259.8 	"/>
	<path class="st0" d="M332.3,290.7l-3,9.7c0,0-3.9,10.8,7.8,7.8l9.8-2.9l4.9-4.9"/>
	<line class="st0" x1="330.3" y1="298.4" x2="338.9" y2="307"/>
</g>
</svg>
