<?xml version="1.0" encoding="utf-8"?>
<!-- Generator: Adobe Illustrator 27.2.0, SVG Export Plug-In . SVG Version: 6.00 Build 0)  -->
<svg fill="#ffffff" version="1.1" id="Layer_1" xmlns="http://www.w3.org/2000/svg" xmlns:xlink="http://www.w3.org/1999/xlink" x="0px" y="0px"
     viewBox="0 0 555 321" style="enable-background:new 0 0 555 321;" xml:space="preserve">
<g id="Layer_1_00000066476675034397074730000008352530006380685450_">
	<g>
		<g>
			<g>
				<path d="M234.8,321c-0.2,0-0.4-0.1-0.6-0.2c-0.3-0.2-0.4-0.5-0.4-0.8v-32.2c0-0.4,0.2-0.8,0.6-0.9l35.4-14.5
					c0.3-0.1,0.7-0.1,0.9,0.1c0.3,0.2,0.4,0.5,0.4,0.8v32.2c0,0.4-0.2,0.8-0.6,0.9l-35.4,14.5C235.1,321,234.9,321,234.8,321z
					 M235.8,288.5v30l33.4-13.7v-30L235.8,288.5z M270.2,305.5L270.2,305.5L270.2,305.5z"/>
			</g>
			<g>
				<path d="M234.8,321c-0.1,0-0.2,0-0.3,0l-36.1-11.5c-0.5-0.2-0.8-0.7-0.6-1.3c0.2-0.5,0.7-0.8,1.3-0.6l34.8,11.1v-30.1
					l-35.4-12.1c-0.5-0.2-0.8-0.7-0.6-1.3c0.2-0.5,0.7-0.8,1.3-0.6l36.1,12.3c0.4,0.1,0.7,0.5,0.7,0.9V320c0,0.3-0.2,0.6-0.4,0.8
					C235.2,320.9,235,321,234.8,321z"/>
			</g>
			<g>
				<path d="M270.2,274.3c-0.1,0-0.2,0-0.3,0l-37-10.5c-0.5-0.2-0.8-0.7-0.7-1.2c0.2-0.5,0.7-0.8,1.2-0.7l37,10.5
					c0.5,0.2,0.8,0.7,0.7,1.2C271,274,270.6,274.3,270.2,274.3z"/>
			</g>
		</g>
	</g>
	<g>
		<g>
			<g>
				<path d="M170.1,321c-0.2,0-0.4-0.1-0.6-0.2c-0.3-0.2-0.4-0.5-0.4-0.8v-34.7c0-0.4,0.3-0.8,0.7-0.9l28.7-9.8
					c0.3-0.1,0.6-0.1,0.9,0.1c0.3,0.2,0.4,0.5,0.4,0.8v33c0,0.4-0.2,0.8-0.6,0.9l-28.7,11.5C170.3,321,170.2,321,170.1,321z
					 M171.1,286v32.5l26.7-10.7v-30.9L171.1,286z M198.7,308.5L198.7,308.5L198.7,308.5z"/>
			</g>
			<g>
				<path d="M170.1,321c-0.1,0-0.2,0-0.4-0.1l-43.8-17.2c-0.4-0.2-0.6-0.5-0.6-0.9v-30.6c0-0.3,0.1-0.6,0.4-0.8
					c0.3-0.2,0.6-0.2,0.9-0.2l43.8,13.1c0.4,0.1,0.7,0.5,0.7,1V320c0,0.3-0.2,0.6-0.4,0.8C170.5,320.9,170.3,321,170.1,321z
					 M127.3,302.1l41.8,16.4v-32.5l-41.8-12.5V302.1z"/>
			</g>
			<g>
				<path d="M126.3,273.2c-0.4,0-0.8-0.3-1-0.7c-0.2-0.5,0.2-1.1,0.7-1.2l33.1-9.4c0.5-0.2,1.1,0.2,1.2,0.7c0.2,0.5-0.2,1.1-0.7,1.2
					l-33.1,9.4C126.5,273.2,126.4,273.2,126.3,273.2z"/>
			</g>
		</g>
	</g>
	<g>
		<g>
			<g>
				<path d="M198.7,276.5c-0.2,0-0.4-0.1-0.6-0.2c-0.3-0.2-0.4-0.5-0.4-0.8v-31.7c0-0.4,0.3-0.8,0.7-0.9l34.5-12.4
					c0.3-0.1,0.6-0.1,0.9,0.1c0.3,0.2,0.4,0.5,0.4,0.8v31.1c0,0.4-0.3,0.8-0.6,0.9l-34.5,13C199,276.5,198.9,276.5,198.7,276.5z
					 M199.7,244.6v29.5l32.5-12.2v-29L199.7,244.6z M233.2,262.5L233.2,262.5L233.2,262.5z"/>
			</g>
			<g>
				<path d="M198.7,244.9c-0.1,0-0.2,0-0.3-0.1l-39.4-13.5c-0.5-0.2-0.8-0.7-0.6-1.3c0.2-0.5,0.7-0.8,1.3-0.6l39.4,13.5
					c0.5,0.2,0.8,0.7,0.6,1.3C199.6,244.6,199.2,244.9,198.7,244.9z"/>
			</g>
			<g>
				<path d="M198.7,276.5c-0.1,0-0.2,0-0.3,0l-39.4-12.7c-0.4-0.1-0.7-0.5-0.7-1v-16.3c0-0.6,0.4-1,1-1s1,0.4,1,1v15.6l38.7,12.5
					c0.5,0.2,0.8,0.7,0.6,1.3C199.6,276.3,199.2,276.5,198.7,276.5z"/>
			</g>
			<g>
				<path d="M233.2,232.5c-0.1,0-0.2,0-0.3,0l-36.6-11.5l-36.7,10.4c-0.5,0.2-1.1-0.2-1.2-0.7c-0.2-0.5,0.2-1.1,0.7-1.2l37-10.5
					c0.2-0.1,0.4-0.1,0.6,0l36.9,11.6c0.5,0.2,0.8,0.7,0.7,1.3C234,232.2,233.6,232.5,233.2,232.5z"/>
			</g>
		</g>
	</g>
	<g>
		<path d="M159.4,231.4c-0.4,0-0.7-0.2-0.9-0.5l-11-20.3c-0.1-0.3-0.2-0.6,0-0.9c0.1-0.3,0.4-0.5,0.7-0.6l37.2-10.2
			c0.4-0.1,0.9,0.1,1.1,0.5l11,20.1c0.3,0.5,0.1,1.1-0.4,1.4c-0.5,0.3-1.1,0.1-1.4-0.4l-10.6-19.4l-35.2,9.6l10.4,19.2
			c0.3,0.5,0.1,1.1-0.4,1.4C159.7,231.3,159.5,231.4,159.4,231.4z"/>
	</g>
	<g>
		<path d="M182,255.8c-0.1,0-0.2,0-0.3-0.1l-36.4-13.2c-0.3-0.1-0.6-0.4-0.6-0.8c-0.1-0.4,0.1-0.7,0.4-0.9l13.8-11.2
			c0.3-0.2,0.6-0.3,1-0.2l39.4,13.5c0.4,0.1,0.6,0.4,0.7,0.8c0,0.4-0.1,0.8-0.4,1l-16.8,10.9C182.3,255.7,182.2,255.8,182,255.8z
			 M147.6,241.2l34.2,12.4l14.6-9.5l-36.9-12.6L147.6,241.2z"/>
	</g>
	<g>
		<path d="M233.2,232.5c-0.5,0-1-0.4-1-0.9c0-0.6,0.4-1,0.9-1.1l12.6-0.9l-30.2-9.5l-19.1,0.8c-0.6,0-1-0.4-1-1c0-0.6,0.4-1,1-1
			l19.3-0.8c0.1,0,0.2,0,0.3,0l35.4,11.1c0.5,0.1,0.7,0.6,0.7,1.1c-0.1,0.5-0.4,0.8-0.9,0.9L233.2,232.5
			C233.3,232.5,233.2,232.5,233.2,232.5z"/>
	</g>
</g>
<g>
	<g>
		<path d="M336.5,247.5c-20.2,0-41.6-3.8-41.6-10.8v-3.8c0,0,0-0.1,0-0.1c0-0.1,0-0.1,0-0.2c0-6.2,16.7-9.5,31-10.5
			c0.6,0,1,0.4,1.1,0.9c0,0.6-0.4,1-0.9,1.1c-18.2,1.2-29.1,5.2-29.1,8.5c0,4.2,16.3,8.8,39.6,8.8s39.6-4.6,39.6-8.8
			c0-3.2-10.8-7.2-28.8-8.4c-0.6,0-1-0.5-0.9-1.1s0.5-1,1.1-0.9c13.8,0.9,29.9,4.1,30.6,10c0,0.1,0,0.2,0,0.2v4.3
			C378.1,243.7,356.7,247.5,336.5,247.5z M296.9,236.1v0.6c0,4.2,16.3,8.8,39.6,8.8s39.6-4.6,39.6-8.8v-0.6
			c-5.8,4.8-23.1,7.3-39.6,7.3C320,243.4,302.7,240.9,296.9,236.1z"/>
	</g>
	<g>
		<path d="M347.4,308c-0.1,0-0.3,0-0.4-0.1c-9-3.8-9.2-16.3-9.2-16.8v-44.3c0-0.6,0.4-1,1-1s1,0.4,1,1v44.3c0,0.1,0.2,11.6,8,15
			c0.5,0.2,0.7,0.8,0.5,1.3C348.1,307.8,347.7,308,347.4,308z M325.8,308c-0.4,0-0.7-0.2-0.9-0.6c-0.2-0.5,0-1.1,0.5-1.3
			c7.8-3.5,8-14.9,8-15v-44.3c0-0.6,0.4-1,1-1s1,0.4,1,1v44.3c0,0.5-0.2,12.8-9.2,16.8C326.1,308,325.9,308,325.8,308z"/>
	</g>
	<g>
		<path d="M336.4,321c-15,0-26.8-4.6-26.8-10.4c0-5.2,9.1-9.4,22.1-10.2c0.5,0,1,0.4,1.1,0.9c0,0.6-0.4,1-0.9,1.1
			c-12.7,0.8-20.2,4.9-20.2,8.3c0,4,10.2,8.4,24.8,8.4c14.6,0,24.8-4.4,24.8-8.4c0-3.7-8.8-7.3-20.1-8.1c-0.6,0-1-0.5-0.9-1.1
			c0-0.6,0.5-1,1.1-0.9c10.9,0.8,21.9,4.2,21.9,10.1C363.2,316.4,351.4,321,336.4,321z M335.2,231.2c-0.9,0-1.6,0-1.9,0
			c-3-0.2-4.2-1-4.4-1.1c-1.4-1.1-1.4-2.1-1.3-3.2c0-0.2,0-0.4,0-0.7c0-0.3-1.1-1.2-1.8-1.8c-1.2-1-2.8-2.3-4.1-4.1
			c-1.1-1.5-1.6-2.8-1.4-4c0.3-1.7,1.8-2.8,3.8-4.2c1.6-1.1,3.6-2.6,5.6-4.7c4.5-5,3-17.2,2.4-21.2c-13.4-0.4-22.8-3.4-23-3.4
			c-0.5-0.1-0.8-0.6-0.7-1.1l6.7-50.4c0.1-0.4,0.4-0.8,0.8-0.9c13.5-2,27.2-1.9,40.7,0.3c0.4,0.1,0.8,0.4,0.8,0.9l5.8,49.5
			c0.1,0.5-0.2,0.9-0.7,1.1c-3.4,1.1-6.7,1.9-10,2.5V196c1.1,0.5,1.9,1.6,2,2.9c0,0.1,0,0.1,0,0.2c0,1.9-1.5,3.4-3.4,3.4
			c-0.9,0-1.8-0.3-2.4-1c-0.6-0.6-1-1.5-1-2.4c0-0.9,0.3-1.8,1-2.4c0.5-0.5,1.1-0.8,1.8-0.9v-10.7c-3.2,0.5-6.3,0.8-9.3,1
			c-0.7,3.8-2.6,16.2,2,21.3c2,2.2,4.1,3.7,5.9,4.8c2,1.4,3.7,2.5,4,4.2c0.2,1.2-0.2,2.4-1.3,3.9c-1.3,1.8-2.9,3.1-4.1,4.1
			c-0.7,0.6-1.8,1.4-1.8,1.8c0,0.3,0,0.5,0,0.7c0,1.1,0.1,2.1-1.3,3.1C343.4,231,338.1,231.2,335.2,231.2z M330.1,228.4
			c0,0,0.9,0.5,3.3,0.7c2.2,0.2,9.1-0.1,10-0.7c0.6-0.4,0.6-0.5,0.5-1.5c0-0.2,0-0.5,0-0.8c0-1.3,1.1-2.2,2.5-3.3
			c1.2-0.9,2.6-2.1,3.8-3.7c0.8-1,1.1-1.8,1-2.4c-0.2-0.9-1.5-1.8-3.1-2.9c-1.8-1.2-4-2.7-6.2-5.1c-5.1-5.6-3.4-18-2.6-22.5
			c-1.8,0.1-3.5,0.1-5.2,0.1c0.7,4.5,2,16.9-3,22.5c-2.1,2.3-4.2,3.8-5.9,5c-1.6,1.1-2.9,2-3,2.9c-0.1,0.6,0.2,1.4,1,2.4
			c1.2,1.6,2.6,2.8,3.8,3.7c1.4,1.1,2.5,2,2.5,3.3c0,0.3,0,0.5,0,0.8C329.6,227.9,329.6,228,330.1,228.4
			C330.1,228.4,330.1,228.4,330.1,228.4z M350.8,197.8c-0.5,0.2-0.8,0.7-0.8,1.2c0,0.4,0.1,0.7,0.4,1c0.3,0.3,0.7,0.4,1,0.4
			c0.7,0,1.3-0.6,1.4-1.3c0,0,0-0.1,0-0.1c0-0.3-0.1-0.5-0.2-0.7c-0.2,0.2-0.5,0.4-0.8,0.4C351.3,198.7,350.9,198.3,350.8,197.8z
			 M333.8,184.3c2,0,4,0,6.1-0.1c0.2-0.3,0.6-0.5,1-0.4c0.2,0,0.4,0.2,0.5,0.3c3.2-0.2,6.6-0.6,10-1.2c0.1,0,0.2,0,0.3-0.1
			c3.2-0.6,6.4-1.3,9.7-2.3l-5.6-47.9c-12.8-2-25.8-2.1-38.6-0.3l-6.5,48.8c2.5,0.7,10.6,2.7,21.5,3.1c0.1-0.2,0.4-0.4,0.6-0.4
			C333.2,183.7,333.6,183.9,333.8,184.3z"/>
	</g>
</g>
<g id="Layer_1_00000147187324652269409130000002638894106309086341_">
	<g>
		<g>
			<g>
				<path d="M430.2,242.6c-0.3,0-0.6-0.2-0.8-0.5c-0.3-0.5-0.2-1.1,0.3-1.4c1-0.7,1.4-3.5,1.2-5.3c0-0.2-3.7-30.7-4.3-36.2
					c-0.5-4.6-4.7-8.5-8.5-9.3c-1.4,0.1-2.3,0.5-2.9,1.3c-1.3,1.8-0.6,4.9-0.5,4.9c0,0,0,0.1,0,0.1c2.2,19.9,9.1,42.8,9.2,43
					c0.2,0.5-0.1,1.1-0.7,1.2c-0.5,0.2-1.1-0.1-1.2-0.7c-0.1-0.2-7-23.3-9.2-43.3c-0.1-0.6-0.9-4.1,0.9-6.5c1-1.3,2.5-2.1,4.6-2.2
					c0.1,0,0.2,0,0.3,0c4.5,0.9,9.6,5.4,10.2,11.1c0.6,5.4,4.3,35.9,4.3,36.2c0,0.6,0.3,5.6-2.1,7.2
					C430.6,242.5,430.4,242.6,430.2,242.6z"/>
			</g>
			<g>
				<path d="M473,198.1c-28.5,0-49.2-4.8-49.5-4.9c-0.5-0.1-0.9-0.7-0.7-1.2c0.1-0.5,0.7-0.9,1.2-0.7c0.5,0.1,51.2,11.9,103-1.7
					c0.5-0.1,1.1,0.2,1.2,0.7c0.1,0.5-0.2,1.1-0.7,1.2C508.3,196.5,489.4,198.1,473,198.1z"/>
			</g>
			<g>
				<path d="M519.2,242.3c-0.2,0-0.4-0.1-0.6-0.2c-2.3-1.8-1.9-6.3-1.9-6.8c0-0.3,3.7-30.8,4.3-36.2c0.5-5.2,4.7-11,10.4-11.1
					c0,0,0.1,0,0.1,0c1.7,0,3.1,0.6,4.1,1.7c2.1,2.5,1.4,6.8,1.3,7c-2.2,20-9.2,43.1-9.2,43.3c-0.2,0.5-0.7,0.8-1.2,0.7
					c-0.5-0.2-0.8-0.7-0.7-1.2c0.1-0.2,7-23.1,9.2-43c0.2-1.1,0.4-3.9-0.9-5.4c-0.6-0.7-1.4-1-2.6-1c-4.5,0.1-8,4.9-8.4,9.3
					c-0.6,5.4-4.3,35.9-4.3,36.2c-0.1,1-0.1,4,1.1,5c0.4,0.3,0.5,1,0.2,1.4C519.8,242.2,519.5,242.3,519.2,242.3z"/>
			</g>
			<g>
				<path d="M520.7,316.6h-91.9c-5,0-6.7,0-7.9-2.9c-2.2-6.6-9.3-33.3-11-43.6c-0.5-3-1.1-5.7-1.6-8.3c-1.3-6.4-2.5-11.9-1.4-17
					c0.5-2.4,1.7-4.2,3.6-5.4c3.5-2.2,8.8-1.6,12.5-0.7c10,2.4,12,3.4,14.4,6.3c2.9,3.4,4.1,9.8,3.3,17c-0.1,0.5-0.6,0.9-1.1,0.9
					c-0.5-0.1-0.9-0.6-0.9-1.1c0.9-7.8-0.9-13.1-2.9-15.4c-2-2.3-3.2-3.2-13.4-5.7c-3.4-0.8-8-1.4-11,0.4c-1.4,0.9-2.3,2.2-2.7,4.1
					c-1,4.6,0,9.7,1.4,16.1c0.6,2.7,1.1,5.4,1.6,8.4c1.6,10.1,8.7,37,10.9,43.2c0.7,1.5,1,1.6,6.1,1.6h91.9c5,0,5.3-0.1,6.1-1.7
					c2.2-6.1,9.2-32.9,10.8-43.2c0.5-3,1.1-5.8,1.6-8.4c1.3-6.4,2.4-11.5,1.4-16.1c-0.4-1.9-1.3-3.2-2.7-4.1c-3-1.8-7.6-1.3-11-0.4
					c-4,1-6.4,1.6-8.3,2c-1.7,0.4-3,0.7-4.6,1.2l-0.2,0.1c-3,0.9-5.9,1.7-6.1,16.7c0,0.5-0.5,1-1,1c0,0,0,0,0,0c-0.6,0-1-0.5-1-1
					c0.2-15.4,3.1-17.3,7.5-18.6l0.2-0.1c1.7-0.5,3-0.8,4.7-1.2c1.9-0.4,4.3-1,8.3-2c3.8-0.9,9-1.5,12.5,0.7c1.9,1.2,3.1,3,3.6,5.4
					c1.1,5,0,10.6-1.4,17c-0.6,2.6-1.1,5.3-1.6,8.3c-1.7,10.4-8.8,37.5-10.9,43.6c0,0,0,0.1,0,0.1
					C527.2,316.6,525.7,316.6,520.7,316.6z"/>
			</g>
			<g>
				<path d="M447,310c-3.7,0-6.7,0-8.3-0.1l-0.5,0c-6.2-0.2-11.2-0.3-13.1-6.4c-1.1-3.7-2-11.1,0.7-15.1c1-1.5,2.4-2.4,4.2-2.6
					c0,0,0.1,0,0.1,0l0.3,0c8.4-0.4,52.3-2.2,88.9,0c1.7,0.1,3.2,0.9,4.2,2.4c2.6,3.9,2,11.3,0.7,15.3c-1.9,6-6.8,6.2-13,6.4l-0.5,0
					c-0.3,0-29.5,0-35.9-0.1C474.5,309.8,458,310,447,310z M430.2,287.8c-1.1,0.1-2,0.7-2.7,1.7c-2,3-1.8,9.1-0.5,13.4
					c1.4,4.5,4.6,4.8,11.2,5l0.5,0c6.3,0.2,35.7-0.1,36-0.1c6.4,0.1,35.6,0.1,35.9,0.1l0.4,0c6.6-0.2,9.8-0.5,11.2-5
					c1.4-4.2,1.6-10.7-0.4-13.5c-0.7-1-1.6-1.5-2.7-1.6c0,0,0,0,0,0c-36.5-2.2-80.3-0.4-88.7,0C430.3,287.8,430.2,287.8,430.2,287.8
					z"/>
			</g>
			<g>
				<path d="M435.9,287.5c0,0-0.1,0-0.1,0c-5.1-0.7-7.8-1.4-8.5-6.8c-0.1-0.6-0.2-1.2-0.3-1.8c-0.6-3.7-1.2-7.8,0.9-9.9
					c2.2-2.2,10.3-7,10.6-7.2c6.3-3.5,24.4-4.1,25.2-4.1c1.6-0.1,40-1.3,47.4,4.2c0.8,0.4,8.4,5,10.6,7.1c2.1,2.2,1.5,6.3,1,9.9
					c-0.1,0.6-0.2,1.2-0.3,1.8c-0.7,5.6-5,6.1-9.5,6.7c-0.6,0.1-1-0.3-1.1-0.9c-0.1-0.5,0.3-1,0.9-1.1c5.1-0.6,7.2-1.2,7.7-4.9
					c0.1-0.6,0.2-1.2,0.3-1.9c0.5-3.2,1-6.7-0.4-8.2c-2-2-10.1-6.8-10.2-6.8c0,0-0.1,0-0.1-0.1c-5.6-4.3-35.2-4.2-46.2-3.8
					c-0.2,0-18.4,0.6-24.2,3.9c-0.1,0-8.2,4.8-10.2,6.8c-1.4,1.4-0.8,5.2-0.4,8.2c0.1,0.6,0.2,1.2,0.3,1.8c0.5,4,1.9,4.4,6.8,5
					c0.5,0.1,0.9,0.6,0.8,1.1C436.8,287.1,436.4,287.5,435.9,287.5z"/>
			</g>
			<g>
				<path d="M427.4,274.3c-0.1,0-0.2,0-0.3,0c-0.5-0.2-0.8-0.7-0.7-1.3c1.7-5.2,10-5.5,18.8-5.8c11.9-0.4,53.1-0.2,53.5-0.2
					c16.6,0.5,23.7,1.3,24.3,5.5c0.1,0.5-0.3,1.1-0.8,1.1c-0.6,0.1-1.1-0.3-1.1-0.8c-0.4-3.1-13.6-3.5-22.3-3.7
					c-0.4,0-41.6-0.2-53.4,0.2c-9.2,0.3-15.8,0.8-17,4.4C428.2,274,427.8,274.3,427.4,274.3z"/>
			</g>
			<g>
				<path d="M432.6,321c-1.7,0-2-1.5-2.3-3.5c-0.1-0.5-0.2-1.1-0.3-1.7c-0.1-0.5,0.3-1.1,0.8-1.2c0.5-0.1,1.1,0.3,1.2,0.8
					c0.1,0.7,0.2,1.3,0.3,1.8c0.1,0.6,0.2,1.2,0.3,1.5c0.2-0.4,0.4-0.9,0.6-1.4c0-0.1,0-0.1,0.1-0.2l0.9-1.7
					c0.3-0.5,0.9-0.7,1.4-0.4c0.5,0.3,0.7,0.9,0.4,1.4L435,318c-0.4,1.3-1.1,2.9-2.3,3C432.7,321,432.6,321,432.6,321z"/>
			</g>
			<g>
				<path d="M518.4,321c0,0-0.1,0-0.1,0c-1.2-0.1-1.9-1.7-2.3-3l-0.9-1.6c-0.3-0.5-0.1-1.1,0.4-1.4c0.5-0.3,1.1-0.1,1.4,0.4l0.9,1.7
					c0,0.1,0.1,0.1,0.1,0.2c0.2,0.5,0.4,1,0.6,1.4c0.1-0.4,0.2-1,0.3-1.5c0.1-0.5,0.2-1.1,0.3-1.8c0.1-0.5,0.6-0.9,1.2-0.8
					c0.5,0.1,0.9,0.6,0.8,1.2c-0.1,0.7-0.2,1.2-0.3,1.7C520.4,319.5,520.1,321,518.4,321z"/>
			</g>
		</g>
	</g>
</g>
<g id="Layer_3_00000050640278281429840280000013323628123631885758_">
</g>
</svg>
