<svg xmlns="http://www.w3.org/2000/svg" width="351" height="138" viewBox="0 0 351 138"><path d="M96.7 549L115.5 549 115.5 537.9 96.7 537.9 96.7 549ZM117.5 549L136.3 549 136.3 537.9 117.5 537.9 117.5 549ZM96.7 553L115.5 553 115.5 551 96.7 551 96.7 553ZM117.5 553L136.3 553 136.3 551 117.5 551 117.5 553ZM139.9 555L93.1 555 93.1 553 94.7 553 94.7 535.9 138.3 535.9 138.3 553 139.9 553 139.9 555ZM162.1 541.3L180.9 541.3 180.9 537.9 162.1 537.9 162.1 541.3ZM182.9 545.3L201.7 545.3 201.7 537.9 182.9 537.9 182.9 545.3ZM162.1 553L180.9 553 180.9 543.3 162.1 543.3 162.1 553ZM182.9 553L201.7 553 201.7 547.3 182.9 547.3 182.9 553ZM205.3 555L158.5 555 158.5 553 160.1 553 160.1 535.9 203.7 535.9 203.7 553 205.3 553 205.3 555ZM243.1 579.7L246.8 579.7 246.8 576 243.1 576 243.1 579.7ZM248.8 581.7L241.1 581.7 241.1 574 248.8 574 248.8 581.7ZM314.4 580.2L327.6 580.2 327.6 577 314.4 577 314.4 580.2ZM329.6 582.2L312.4 582.2 312.4 575 329.6 575 329.6 582.2ZM332.5 580.2L345.7 580.2 345.7 577 332.5 577 332.5 580.2ZM347.7 582.2L330.5 582.2 330.5 575 347.7 575 347.7 582.2ZM267.7 576.5L291 576.5 291 570.6 267.7 570.6 267.7 576.5ZM267.7 584.5L291 584.5 291 578.5 267.7 578.5 267.7 584.5ZM294.9 586.5L263.8 586.5 263.8 584.5 265.7 584.5 265.7 568.6 293 568.6 293 584.5 294.9 584.5 294.9 586.5ZM117.5 577.2L136.3 577.2 136.3 570.6 117.5 570.6 117.5 577.2ZM96.7 581L115.5 581 115.5 570.6 96.7 570.6 96.7 581ZM96.7 585.8L115.5 585.8 115.5 583 96.7 583 96.7 585.8ZM117.5 585.8L136.3 585.8 136.3 579.2 117.5 579.2 117.5 585.8ZM139.9 587.8L93.1 587.8 93.1 585.8 94.7 585.8 94.7 568.6 138.3 568.6 138.3 585.8 139.9 585.8 139.9 587.8ZM162.1 581.8L180.9 581.8 180.9 570.6 162.1 570.6 162.1 581.8ZM182.9 581.8L201.7 581.8 201.7 570.6 182.9 570.6 182.9 581.8ZM162.1 585.8L180.9 585.8 180.9 583.8 162.1 583.8 162.1 585.8ZM182.9 585.8L201.7 585.8 201.7 583.8 182.9 583.8 182.9 585.8ZM205.3 587.8L158.5 587.8 158.5 585.8 160.1 585.8 160.1 568.6 203.7 568.6 203.7 585.8 205.3 585.8 205.3 587.8ZM243.1 588.3L246.8 588.3 246.8 584.7 243.1 584.7 243.1 588.3ZM248.8 590.3L241.1 590.3 241.1 582.7 248.8 582.7 248.8 590.3ZM243.1 597L246.8 597 246.8 593.3 243.1 593.3 243.1 597ZM248.8 599L241.1 599 241.1 591.3 248.8 591.3 248.8 599ZM75.6 520.1L218.2 520.1 218.2 481.5 224.5 481.5 224.5 472 74.3 472 74.3 516.6C74.7 517.7 75.1 518.8 75.6 520.1L75.6 520.1ZM77.3 525.3L224.5 525.3 224.5 522.1 76.2 522.1C76.6 523.1 76.9 524.2 77.3 525.3L77.3 525.3ZM226.5 535.9L234 535.9 234 483.5 220.2 483.5 220.2 520.1 226.5 520.1 226.5 535.9ZM226.5 541.3L239.3 541.3 239.3 529.3 236 529.3 236 537.9 226.5 537.9 226.5 541.3ZM355.6 533.9C352.3 533.9 349.6 536.6 349.6 540 349.6 543.3 352.3 546 355.6 546 359 546 361.7 543.3 361.7 540 361.7 536.6 359 533.9 355.6 533.9L355.6 533.9ZM226.5 547.4L350.1 547.4C350.2 547 350.3 546.6 350.5 546.2 348.7 544.7 347.6 542.5 347.6 540 347.6 535.5 351.2 531.9 355.6 531.9 357.9 531.9 359.9 532.9 361.4 534.4 362.5 533.8 363.6 533.4 364.8 533L364.8 506.9 236 506.9 236 527.3 241.3 527.3 241.3 543.3 226.5 543.3 226.5 547.4ZM226.5 553.3L348.9 553.3C349 552 349.2 550.7 349.5 549.4L226.5 549.4 226.5 553.3ZM65.6 508.8C64.9 508.8 63.3 509.1 62 511.6 59.9 515.9 46.2 551.6 54.8 565.5 57 569 60.3 570.9 65.1 571.1L65.1 564.2 67.1 564.2 67.1 571.1C71.8 570.9 75.2 569 77.4 565.5 86 551.6 72.3 515.9 70.1 511.6 68.6 508.5 66.4 508.9 66.3 508.9L66.1 508.9 65.9 508.9C65.9 508.9 65.8 508.8 65.6 508.8L65.6 508.8ZM389.9 555.3C385.3 555.3 381.6 559 381.6 563.7 381.6 568.3 385.3 572 389.9 572 394.6 572 398.3 568.3 398.3 563.7 398.3 559 394.6 555.3 389.9 555.3L389.9 555.3ZM372.7 559.3L372.7 575.7C376.7 575.5 380.5 574.2 383.7 572 381.2 570.1 379.6 567 379.6 563.7 379.6 557.9 384.2 553.3 389.9 553.3 390.9 553.3 391.7 553.4 392.6 553.6 392 542.6 382.8 533.9 371.7 533.9 368.6 533.9 365.4 534.6 362.6 536 363.3 537.2 363.7 538.5 363.7 540 363.7 544.4 360.1 548 355.6 548 354.4 548 353.3 547.8 352.2 547.3 351.3 549.7 350.8 552.2 350.8 554.8 350.8 566 359.7 575.2 370.7 575.7L370.7 564.1 362 555.5 363.4 554.1 370.7 561.3 370.7 548.4 372.7 548.4 372.7 556.5 379.8 549.3 381.3 550.8 372.7 559.3ZM67.1 573.1L67.1 580.9 72.3 577.1 72.3 572.1C70.8 572.7 69 573 67.1 573.1L67.1 573.1ZM368.3 584.8C369.1 584.8 369.9 584.9 370.7 585.1L370.7 577.7C369.4 577.6 368.1 577.5 366.8 577.2L366.8 584.9C367.3 584.9 367.8 584.8 368.3 584.8L368.3 584.8ZM67.1 583.3L67.1 592.5C68.4 590.9 70.2 589.6 72.3 589.1L72.3 579.6 67.1 583.3ZM74.4 590.9C70.5 590.9 67.2 594.1 67.2 598.1 67.2 602.1 70.5 605.4 74.4 605.4 78.4 605.4 81.7 602.1 81.7 598.1 81.7 594.1 78.4 590.9 74.4 590.9L74.4 590.9ZM217.3 583.8C211.3 583.8 206.5 588.7 206.5 594.6 206.5 600.5 211.3 605.4 217.3 605.4 223.2 605.4 228 600.5 228 594.6 228 588.7 223.2 583.8 217.3 583.8L217.3 583.8ZM368.3 586.8C363.1 586.8 358.9 591 358.9 596.2 358.9 601.4 363.1 605.6 368.3 605.6 373.5 605.6 377.7 601.4 377.7 596.2 377.7 591 373.5 586.8 368.3 586.8L368.3 586.8ZM237.4 605.7L252.2 605.7 252.2 569.8 237.4 569.8 237.4 605.7ZM67.1 605.7L69.2 605.7C68.4 605.1 67.7 604.5 67.1 603.7L67.1 605.7ZM79.7 605.7L210.9 605.7C207.1 603.5 204.5 599.3 204.5 594.6 204.5 587.5 210.2 581.8 217.3 581.8 219.9 581.8 222.4 582.7 224.5 584.1L224.5 527.3 77.9 527.3C81.6 540.3 84.7 557.5 79.1 566.6 77.9 568.6 76.3 570.1 74.3 571.2L74.3 575.7 76.3 574.3 77.5 575.9 74.3 578.2 74.3 588.9C74.4 588.9 74.4 588.9 74.4 588.9 79.5 588.9 83.7 593 83.7 598.1 83.7 601.3 82.1 604 79.7 605.7L79.7 605.7ZM308.5 605.8L351.3 605.8 351.3 569.9 308.5 569.9 308.5 605.8ZM353.3 605.8L362.1 605.8C359 603.7 356.9 600.2 356.9 596.2 356.9 591.2 360.2 586.9 364.8 585.4L364.8 576.7C360.1 575.2 356.1 572.2 353.3 568.4L353.3 605.8ZM380.6 607.8L306.5 607.8 306.5 607.7 236.4 607.7 236.4 607.7 225.5 607.7 225.5 605.7 235.4 605.7 235.4 567.8 254.2 567.8 254.2 605.7 306.5 605.7 306.5 567.9 352.9 567.9C350.4 564.3 348.9 560 348.8 555.3L226.5 555.3 226.5 585.8C228.7 588.1 230 591.2 230 594.6 230 599.3 227.4 603.5 223.6 605.7L225.5 605.7 225.5 607.7 59.8 607.7 59.8 605.7 65.1 605.7 65.1 590.3 56.5 581 57.9 579.7 65.1 587.4 65.1 573.1C59.7 572.9 55.6 570.7 53.1 566.6 43.9 551.7 57.9 515.4 60.3 510.7 62.3 506.7 65.3 506.8 66.1 506.9 66.9 506.8 69.9 506.7 71.9 510.7 72 511 72.2 511.3 72.3 511.6L72.3 470 226.5 470 226.5 481.5 236 481.5 236 504.9 366.8 504.9 366.8 532.5C368.4 532.1 370.1 531.9 371.7 531.9 384.2 531.9 394.4 542 394.6 554.4 398 556.1 400.3 559.6 400.3 563.7 400.3 569.4 395.7 574 389.9 574 388.4 574 386.9 573.7 385.6 573.1 381.9 575.9 377.4 577.5 372.7 577.7L372.7 585.7C376.8 587.5 379.7 591.5 379.7 596.2 379.7 600.2 377.6 603.7 374.4 605.8L380.6 605.8 380.6 607.8Z" transform="translate(-50 -470)" fill="#F26646" fill-rule="evenodd"/></svg>