<?xml version="1.0" encoding="utf-8"?>

<svg version="1.1" id="Layer_1" xmlns="http://www.w3.org/2000/svg" xmlns:xlink="http://www.w3.org/1999/xlink" x="0px" y="0px"
	 viewBox="0 0 58 83.3" style="enable-background:new 0 0 58 83.3;" xml:space="preserve" width="58" height="84">
<style type="text/css">
	.st0{fill:none;stroke:#FFFFFF;stroke-width:2;stroke-linecap:round;stroke-linejoin:round;stroke-miterlimit:10;}
</style>
<circle class="st0" cx="30.1" cy="28.6" r="14.1"/>
<g>
	<polyline class="st0" points="20.6,46.4 8.1,74.9 16.3,72.7 20.4,80.1 34.9,46.2 	"/>
</g>
<g>
	<polyline class="st0" points="38.6,46.2 51.1,74.9 42.9,72.7 38.8,80.1 29.8,58.1 	"/>
</g>
<g>
	<path class="st0" d="M27.8,10.1C29,9,31,9,32.2,10.1c1.2,1.2,3.5,1.8,5.2,1.4c1.6-0.4,3.3,0.6,3.8,2.2c0.5,1.6,2.2,3.3,3.8,3.8
		c1.6,0.5,2.6,2.2,2.2,3.8c-0.4,1.6,0.2,4,1.4,5.2s1.2,3.2,0,4.4s-1.8,3.5-1.4,5.2c0.4,1.6-0.6,3.3-2.2,3.8s-3.3,2.2-3.8,3.8
		c-0.5,1.6-2.2,2.6-3.8,2.2c-1.6-0.4-4,0.2-5.2,1.4c-1.2,1.2-3.2,1.2-4.4,0c-1.2-1.2-3.5-1.8-5.2-1.4c-1.6,0.4-3.3-0.6-3.8-2.2
		s-2.2-3.3-3.8-3.8s-2.6-2.2-2.2-3.8c0.4-1.6-0.2-4-1.4-5.2s-1.2-3.2,0-4.4s1.8-3.5,1.4-5.2c-0.4-1.6,0.6-3.3,2.2-3.8
		c1.6-0.5,3.3-2.2,3.8-3.8s2.2-2.6,3.8-2.2S26.6,11.3,27.8,10.1z"/>
</g>
</svg>
