<svg xmlns="http://www.w3.org/2000/svg" width="149" height="216" viewBox="0 0 149 216"><path d="M185.3 313.7C183.5 314 181.1 315 179.5 316.8 177.3 319.2 175.6 324.5 175.2 326.2 174.7 327.9 170.2 348.2 170.2 348.2L193.6 348.2 185.3 313.7ZM187.8 348.5L187.8 385.5 187.8 348.5ZM174.3 348.5L174.3 388.6 174.3 348.5ZM193.6 345.2C188.8 341.9 185.7 336.4 185.7 330.1L185.7 259.4 222.4 259.4 222.4 330.1C222.4 336.4 219.2 342 214.4 345.3L193.6 345.2ZM191.3 358.1C191.3 358.1 200.1 320.8 200.6 319.3 201.1 317.8 202.1 314.3 204 314.3 206 314.3 207.1 317.6 207.5 319.3 208 321.1 216.8 358.1 216.8 358.1 216.8 358.1 209 358.4 191.3 358.1L191.3 358.1ZM215.2 259.9L185.6 259.9C185.6 239.1 203.8 221.3 203.8 221.3 203.8 221.3 222.4 239.4 222.4 259.9L192.8 259.9 215.2 259.9ZM197.2 357.9L197.2 377.3 197.2 357.9ZM210.7 357.9L210.7 374 210.7 357.9ZM219.7 348.5L219.7 377.6 219.7 348.5ZM233.2 348.5L233.2 373.4 233.2 348.5ZM259.7 379C259.7 380.4 258.6 381.5 257.2 381.5 255.8 381.5 254.7 380.4 254.7 379 254.7 377.6 255.8 376.5 257.2 376.5 258.6 376.5 259.7 377.6 259.7 379L259.7 379ZM155.9 379.7C155.9 383.8 152.7 387.1 148.6 387.1 144.5 387.1 141.2 383.8 141.2 379.7 141.2 375.7 144.5 372.4 148.6 372.4 152.7 372.4 155.9 375.7 155.9 379.7L155.9 379.7ZM162.9 365.8C162.9 367.2 161.8 368.4 160.4 368.4 159 368.4 157.9 367.2 157.9 365.8 157.9 364.4 159 363.3 160.4 363.3 161.8 363.3 162.9 364.4 162.9 365.8L162.9 365.8ZM138.1 359C138.1 360.5 136.8 361.7 135.3 361.7 133.8 361.7 132.5 360.5 132.5 359 132.5 357.4 133.8 356.2 135.3 356.2 136.8 356.2 138.1 357.4 138.1 359L138.1 359ZM278.3 394.1C278.3 389.3 274.4 385.4 269.6 385.4 265.8 385.4 262.6 387.9 261.4 391.3 260.9 391.2 260.3 391.2 259.7 391.2 257.1 391.2 254.6 392 252.5 393.4 251.4 389.7 249 386.5 245.9 384.4 246.6 383.2 247 381.8 247 380.3 247 375.7 243.2 371.9 238.5 371.9 233.8 371.9 230.1 375.7 230.1 380.3 230.1 381.2 230.2 382 230.4 382.7 228.7 383.4 227.1 384.3 225.8 385.5 222.6 378.9 215.9 374.3 208.1 374.3 199.9 374.3 192.9 379.3 190 386.4 188.3 385.3 186.3 384.7 184.2 384.7 180.6 384.7 177.4 386.4 175.5 389.1 174.4 388 173 387.3 171.4 387.3 168.3 387.3 165.8 389.8 165.8 392.9 165.8 393.2 165.9 393.5 165.9 393.8 163.7 394.1 161.7 394.9 159.9 396 158 393.1 154.8 391.2 151.1 391.2 145.4 391.2 140.7 395.8 140.7 401.6 140.7 403.4 141.2 405.1 142 406.6 140.3 408.7 139.3 411.4 139.3 414.4 139.3 421.3 144.9 426.9 151.8 426.9 154.7 426.9 157.4 425.9 159.5 424.3 162.1 425.9 165.2 426.9 168.5 426.9 177.7 426.9 185.2 419.5 185.2 410.3 185.2 408.9 185 407.6 184.7 406.4 187.2 406.3 189.5 405.3 191.2 403.8 194.7 409.5 200.9 413.4 208.1 413.4 208.3 413.4 208.6 413.4 208.8 413.4 209.2 424.4 218.2 433.2 229.3 433.2 240.7 433.2 249.8 424 249.8 412.7 249.8 412.5 249.8 412.3 249.8 412.1 252.2 414.9 255.7 416.8 259.7 416.8 266.8 416.8 272.5 411 272.5 404 272.5 403.4 272.5 402.9 272.4 402.3 275.9 401.2 278.3 397.9 278.3 394.1L278.3 394.1ZM257.1 364.9C257.1 368.3 254.3 371.2 250.8 371.2 247.3 371.2 244.5 368.3 244.5 364.9 244.5 361.4 247.3 358.6 250.8 358.6 254.3 358.6 257.1 361.4 257.1 364.9L257.1 364.9ZM213.2 277.3C213.2 283 208.5 287.6 202.8 287.6 197 287.6 192.4 283 192.4 277.3 192.4 271.5 197 266.9 202.8 266.9 208.5 266.9 213.2 271.5 213.2 277.3L213.2 277.3ZM226.4 348.5L226.4 368.7 226.4 348.5ZM181.1 348.5L181.1 368.7 181.1 348.5ZM203.9 357.9L203.9 368.7 203.9 357.9ZM222.2 313.7C224 314 226.4 315 228 316.8 230.2 319.2 231.8 324.5 232.3 326.2 232.7 327.9 237.3 348.2 237.3 348.2L214.3 348.2 222.2 313.7Z" transform="translate(-131 -219)" stroke="#fff" stroke-width="2" fill="none" fill-rule="evenodd"/></svg>