<svg xmlns="http://www.w3.org/2000/svg" width="168" height="168" viewBox="0 0 168 168"><path d="M123.7 85.2C123.7 63.2 105.8 45.3 83.8 45.3 61.7 45.3 43.8 63.2 43.8 85.2 43.8 107.3 61.7 125.2 83.8 125.2 105.8 125.2 123.7 107.3 123.7 85.2L123.7 85.2ZM83.8 32.6L83.8 1.5 83.8 32.6ZM83.8 137.9L83.8 169 83.8 137.9ZM57.9 21.1L53.3 9.9 57.9 21.1ZM110.4 147.9L115.3 159.9 110.4 147.9ZM148.1 58.4L159.2 53.7 148.1 58.4ZM21.3 111.1L9.4 116 21.3 111.1ZM104.4 36.8L108.6 26.8 104.4 36.8ZM63.2 133.7L59.2 143.2 63.2 133.7ZM35.6 64.8L25.5 60.6 35.6 64.8ZM132.7 105.3L142.3 109.3 132.7 105.3ZM136.4 85.2L167.5 85.2 136.4 85.2ZM31.1 85.2L0 85.2 31.1 85.2ZM46.6 48L24.5 26 46.6 48ZM121 122.5L143 144.5 121 122.5ZM121 48L143 26 121 48ZM46.6 122.5L24.5 144.5 46.6 122.5Z" stroke="#fff" stroke-width="2" mask="url(#mask-2)" transform="translate(0 -1)" fill="none" fill-rule="evenodd"/></svg>