<?xml version="1.0" encoding="utf-8"?>
<!-- Generator: Adobe Illustrator 19.1.1, SVG Export Plug-In . SVG Version: 6.00 Build 0)  -->
<svg version="1.1" id="Layer_1" xmlns="http://www.w3.org/2000/svg" xmlns:xlink="http://www.w3.org/1999/xlink" x="0px" y="0px"
	 width="100px" height="100px" viewBox="-155 279.4 283.5 283.5" style="enable-background:new -155 279.4 283.5 283.5;"
	 xml:space="preserve">
<style type="text/css">
	.st0{display:none;}
	.st1{fill:none;stroke:#FFFFFF;stroke-width:4;stroke-miterlimit:10;}
</style>
<g id="Layer_1_1_" class="st0">
	
		<image style="display:inline;overflow:visible;enable-background:new    ;" width="278" height="212" xlink:href="9DA792AE.html"  transform="matrix(1 0 0 1 -134.25 314.64)">
	</image>
</g>
<g id="Layer_2">
	<g>
		<path class="st1" d="M-13.5,335.8c12.5,0.1,25.1,1.4,37.3,4.7c10.4,2.8,22.6,7,28.1,17c5.7,10.4-8.1,20.3-1.3,30.1
			c1.8,2.7,4.8,4.3,7.7,5.8c13.2,7,26.4,13.9,39.5,20.9c3.1,1.6,6.2,3.3,9.7,4c6,1.2,11.4-1.5,14.5-6.7c2.1-3.6,3-7.9,3.3-12.1
			c0.4-5,0.1-10-0.9-14.9c-5.5-27.7-32.4-48.7-56.4-60.4c-25.1-12.3-53.6-18.2-81.5-18.1h0.6c-27.9-0.1-56.4,5.8-81.5,18.1
			c-24,11.8-50.9,32.7-56.4,60.4c-1,4.9-1.3,9.9-0.9,14.9c0.3,4.2,1.2,8.5,3.3,12.1c3.1,5.2,8.5,7.9,14.5,6.7c3.4-0.7,6.6-2.3,9.7-4
			c13.2-7,26.4-13.9,39.5-20.9c2.9-1.5,5.9-3.1,7.7-5.8c6.8-9.8-7-19.8-1.3-30.1c5.6-10.2,17.1-14.9,27.8-17.5
			C-38.8,337.1-26.1,335.7-13.5,335.8z"/>
		<path class="st1" d="M-13,535.2c25.9,0.3,51.8,0.8,77.6,1c7.2,0,15.2-1.2,20.8-6.1c8.4-7.4,7.3-20.5,6.1-30.6
			c-3.1-26.1-10.9-51.5-28-72c-19.3-23.1-47.5-37.8-77.8-38.6c-30.2-0.8-60.5,18.9-78.5,42c-15.6,19.9-22.5,43.9-25.5,68.6
			c-1.2,10.1-2.3,23.2,6.1,30.6c5.6,4.9,13.6,6.2,20.8,6.1c25.9-0.1,51.8-0.7,77.6-1H-13L-13,535.2z"/>
		<circle class="st1" cx="-13.3" cy="462.5" r="45"/>
	</g>
</g>
</svg>
